<svg xmlns="http://www.w3.org/2000/svg" xmlns:xlink="http://www.w3.org/1999/xlink" xmlns:lucid="lucid" width="1602" height="1326.67"><g transform="translate(81.5 -359.5)" lucid:page-tab-id="0_0"><path d="M-500 0h2500v2000H-500z" fill="#f2f3f5"/><path d="M200 760h720v844.67H200z" stroke="#8c4fff" stroke-width="3" fill="#fff" fill-opacity="0"/><path d="M200 760h56v56h-56v-56z" stroke="#fff" stroke-opacity="0" fill="#8c4fff"/><path d="M243.37 789.45l-4.12-1.77v14.68c3.57-.48 4.12-4.16 4.12-4.3v-8.6zm-5.53 12.95v-14.72l-4.23 1.77v8.68c0 .07.63 3.86 4.24 4.27zm.43-16.45c.2-.07.4-.07.55.04l5.53 2.34c.27.1.43.37.43.63v9.16c-.24 2.02-1.88 5.7-6.35 5.7-4.3 0-5.96-3.68-6.24-5.6v-9.26c0-.26.2-.52.43-.63l5.64-2.4zm7.92.92l-7.66-3.38-7.76 3.26v9.97c0 .07-.04 4 2.35 6.48 1.26 1.33 3.06 2 5.3 2 2.27 0 4.03-.67 5.37-2 2.43-2.46 2.4-6.43 2.4-6.47v-9.86zm-1.42 17.3c-1.57 1.6-3.7 2.42-6.35 2.42-2.63 0-4.75-.82-6.3-2.44-2.84-2.87-2.72-7.28-2.72-7.46v-10.42c0-.3.17-.55.44-.62l8.43-3.57c.2-.1.4-.1.55 0l8.35 3.67c.27.1.43.37.43.62v10.33c0 .2.04 4.56-2.82 7.43zm-29.4-10.23h11.2v1.4h-11.2c-3.92 0-6.75-2.84-6.98-7.03v-.5c0-3.54 1.84-5.93 5.33-7 0-.3-.04-.66-.04-.88 0-4.1 2.23-7.65 5.64-9.05 4.62-1.88 9.84-1.25 12.74 1.54 1.05 1.04 1.88 2.18 2.47 3.5.86-.62 1.96-.9 3.3-.84 2.5.1 4.42 2.4 4.8 5.6 2.1.18 3.5 1.25 4.2 3.23l-1.3.47c-.58-1.62-1.67-2.36-3.56-2.36-.36 0-.67-.24-.67-.65-.2-3.24-2-4.82-3.57-4.9-1.33-.06-2.3.3-2.9 1.1-.16.2-.4.3-.67.27-.24-.04-.48-.22-.55-.44-.6-1.55-1.42-2.83-2.55-3.94-2.5-2.43-7.14-2.94-11.25-1.25-2.86 1.17-4.75 4.2-4.75 7.72 0 .37.04.95.08 1.32.04.37-.16.7-.5.77-3.22.82-4.87 2.74-4.87 5.8v.4c.2 3.5 2.4 5.74 5.58 5.74z" stroke="#fff" stroke-opacity="0" fill="#fff"/><use xlink:href="#a" transform="matrix(1,0,0,1,271,780) translate(0 25.1875)"/><use xlink:href="#b" transform="matrix(1,0,0,1,271,780) translate(86.5185546875 25.1875)"/><use xlink:href="#c" transform="matrix(1,0,0,1,271,780) translate(168.4921875 25.1875)"/><use xlink:href="#d" transform="matrix(1,0,0,1,271,780) translate(243.8388671875 25.1875)"/><path d="M-80 600h1141.44v1084.67H-80z" stroke="#242f3e" stroke-width="3" fill="#fff" fill-opacity="0"/><path d="M-80 600h56v56h-56v-56z" stroke="#fff" stroke-opacity="0" fill="#242f3e"/><path d="M-61.78 625.87c-.04.48.05.87.17 1.34.1.4.28.7.48 1.07.04.1.08.22.08.34 0 .2-.12.36-.28.46l-.95.62c-.12.1-.24.13-.37.13-.16 0-.33-.06-.45-.2-.2-.22-.36-.43-.52-.7-.17-.25-.3-.53-.46-.86-1.1 1.37-2.62 2.1-4.4 2.06-1.14.06-2.12-.3-2.95-1.08-.78-.8-1.14-1.76-1.1-2.85-.05-1.23.4-2.28 1.35-3.08 1.07-.86 2.3-1.23 3.66-1.16.57 0 1.02.02 1.6.1.57.1 1.1.2 1.72.33v-1.1c.08-.88-.16-1.67-.7-2.37-.74-.56-1.56-.8-2.46-.7-.53 0-1.03.07-1.6.2-.58.13-1.03.3-1.6.5l-.5.2h-.24c-.2 0-.33-.16-.33-.45v-.75c0-.18.04-.33.12-.5.1-.16.24-.26.4-.33.66-.3 1.2-.5 1.9-.67.77-.2 1.47-.3 2.3-.28 1.47-.13 2.78.26 3.9 1.2.94 1.05 1.35 2.28 1.22 3.67zm-6.07 2.28c.57 0 1.06-.1 1.6-.28.57-.2 1.03-.5 1.44-.96h-.02c.25-.27.42-.56.5-.93.12-.45.16-.84.16-1.3V624c-.53-.1-.94-.17-1.44-.2H-67c-.8-.08-1.55.12-2.2.58-.54.45-.8 1.04-.75 1.73-.04.62.13 1.16.54 1.6.44.38.97.52 1.55.45zm12 1.6c-.22 0-.42-.03-.6-.15-.15-.17-.23-.36-.32-.6l-3.5-11.5-.1-.62c0-.24.1-.37.36-.37h1.47c.2 0 .37.04.57.15.17.18.25.37.3.6l2.5 9.96 2.38-9.93c0-.24.08-.44.28-.6.17-.12.37-.16.58-.14h1.2c.24-.02.4.02.6.13.17.2.25.37.3.6l2.33 9.95 2.56-10c.04-.2.16-.4.33-.58.15-.1.36-.17.56-.14h1.4c.16 0 .33.12.37.3v.31s0 .2-.12.35l-3.6 11.53c-.05.22-.13.42-.3.6-.2.1-.37.14-.57.13h-1.27c-.25.04-.45-.02-.62-.15-.16-.16-.25-.36-.3-.6l-2.3-9.6-2.3 9.6c-.03.24-.1.43-.27.6-.2.13-.4.2-.62.16zm19.2.38c-.82 0-1.52-.07-2.3-.25-.65-.13-1.14-.3-1.72-.6-.2-.1-.37-.23-.45-.4-.08-.16-.12-.3-.12-.45v-.75c0-.3.12-.46.32-.46h.3l.36.15c.58.24 1.03.4 1.6.5.62.15 1.15.2 1.8.2.8.06 1.5-.1 2.2-.48.48-.32.77-.83.72-1.42.05-.4-.12-.76-.37-1.04-.46-.4-.95-.65-1.52-.8l-2.18-.68c-.95-.25-1.73-.73-2.38-1.5-.5-.65-.74-1.35-.74-2.18 0-.6.12-1.08.4-1.6.3-.5.63-.9 1.08-1.22.5-.38.98-.6 1.6-.78.66-.18 1.2-.26 1.9-.25.32-.03.6-.03.97 0l1 .16.8.23.67.25c.16.1.28.22.45.38.08.15.12.3.12.5v.7c0 .3-.12.47-.37.47-.2-.03-.37-.1-.57-.18-.95-.42-1.8-.6-2.88-.58-.7-.04-1.3.08-1.97.4-.5.3-.74.8-.7 1.36 0 .4.13.76.45 1.05.5.4 1 .65 1.6.82l2.1.67c.95.24 1.7.7 2.3 1.43.5.64.7 1.3.7 2.1 0 .63-.13 1.17-.37 1.73-.3.55-.62.95-1.1 1.32-.5.4-1 .66-1.6.84-.75.23-1.4.33-2.15.34zM-33.9 637.5c-5.6 3.8-11.36 5.56-18.15 5.54-8.54.05-15.82-2.74-22.16-8.45-.5-.42 0-1 .48-.68 7.07 4.05 14.02 5.9 22.2 5.9 6.1-.04 11.3-1.1 16.93-3.47.83-.35 1.52.54.7 1.13z" stroke="#fff" stroke-opacity="0" fill="#fff"/><path d="M-31.84 635.2c-.64-.82-4.16-.38-5.75-.2-.46 0-.53-.36-.1-.66 2.8-1.98 7.42-1.4 8-.74.6.67-.14 5.28-2.78 7.5-.4.32-.78.13-.6-.3.54-1.52 1.86-4.83 1.24-5.6z" stroke="#fff" stroke-opacity="0" fill="#fff"/><use xlink:href="#e" transform="matrix(1,0,0,1,-9,620) translate(0 25.1875)"/><use xlink:href="#f" transform="matrix(1,0,0,1,-9,620) translate(107.5546875 25.1875)"/><path d="M0 680h1000v960H0z" fill="#fff" fill-opacity="0"/><path d="M17.86 680h11.9m11.9 0h11.9m11.92 0h11.9m11.9 0h11.9m11.9 0h11.92m11.9 0h11.9m11.9 0h11.92m11.9 0h11.9m11.9 0h11.92m11.9 0h11.9m11.9 0h11.92m11.9 0h11.9m11.9 0h11.92m11.9 0h11.9m11.9 0h11.92m11.9 0h11.9m11.9 0h11.9m11.92 0h11.9m11.9 0h11.9m11.92 0h11.9m11.9 0h11.9m11.92 0h11.9m11.9 0h11.9m11.92 0h11.9m11.9 0h11.9m11.92 0H625m11.9 0h11.9m11.9 0h11.92m11.9 0h11.9m11.9 0h11.92m11.9 0h11.9m11.9 0h11.92m11.9 0h11.9m11.9 0h11.92m11.9 0h11.9m11.9 0h11.92m11.9 0h11.9m11.9 0h11.9m11.92 0h11.9m11.9 0h11.9m11.92 0h11.9m11.9 0h5.96v6m0 12v12m0 12v12m0 12v12m0 12v12m0 12v12m0 12v12m0 12v12m0 12v12m0 12v12m0 12v12m0 12v12m0 12v12m0 12v12m0 12v12m0 12v12m0 12v12m0 12v12m0 12v12m0 12v12m0 12v12m0 12v12m0 12v12m0 12v12m0 12v12m0 12v12m0 12v12m0 12v12m0 12v12m0 12v12m0 12v12m0 12v12m0 12v12m0 12v12m0 12v12m0 12v12m0 12v12m0 12v12m0 12v12m0 12v12m0 12v6h-5.95m-11.9 0h-11.9m-11.92 0h-11.9m-11.9 0h-11.9m-11.92 0h-11.9m-11.9 0H875m-11.9 0h-11.9m-11.9 0h-11.92m-11.9 0h-11.9m-11.9 0h-11.92m-11.9 0h-11.9m-11.9 0h-11.92m-11.9 0h-11.9m-11.9 0H684.5m-11.9 0h-11.9m-11.9 0H636.9m-11.9 0h-11.9m-11.9 0h-11.9m-11.92 0h-11.9m-11.9 0h-11.9m-11.92 0h-11.9m-11.9 0h-11.9m-11.92 0h-11.9m-11.9 0h-11.9m-11.92 0h-11.9m-11.9 0h-11.9m-11.92 0H375m-11.9 0h-11.9m-11.9 0h-11.92m-11.9 0h-11.9m-11.9 0h-11.92m-11.9 0h-11.9m-11.9 0h-11.92m-11.9 0h-11.9m-11.9 0H184.5m-11.9 0h-11.9m-11.9 0h-11.9m-11.92 0h-11.9m-11.9 0H89.3m-11.92 0h-11.9m-11.9 0h-11.9m-11.92 0h-11.9m-11.9 0H0v-6m0-12v-12m0-12v-12m0-12v-12m0-12v-12m0-12v-12m0-12v-12m0-12v-12m0-12v-12m0-12v-12m0-12v-12m0-12v-12m0-12v-12m0-12v-12m0-12v-12m0-12v-12m0-12v-12m0-12v-12m0-12v-12m0-12v-12m0-12v-12m0-12v-12m0-12v-12m0-12v-12m0-12v-12m0-12v-12m0-12v-12m0-12v-12m0-12v-12m0-12v-12m0-12v-12m0-12v-12m0-12v-12m0-12v-12m0-12v-12m0-12v-12m0-12v-12m0-12v-12m0-12v-12m0-12v-12m0-12v-6h5.95" stroke="#00a4a6" stroke-width="3" fill="none"/><path d="M0 680h56v56H0v-56z" stroke="#fff" stroke-opacity="0" fill="#00a4a6"/><path d="M43.84 709.36L37.88 702l5.96-7.4H17.67v-2.08c.98-.32 1.62-1.16 1.62-2.2-.1-1.15-1.03-2.02-2.17-2.14-1.3-.08-2.44.87-2.53 2.15 0 1.03.63 1.87 1.58 2.2v33.88h-4.02v1.6h9.44v-1.6h-3.93v-17.04zM16.88 689.6c.4-.03.76.33.76.73 0 .44-.32.75-.73.75-.4.04-.75-.3-.75-.7v-.05c0-.4.32-.72.73-.72zm23.6 6.62L35.83 702l4.65 5.73h-22.8v-11.5z" stroke="#fff" stroke-opacity="0" fill="#fff"/><use xlink:href="#g" transform="matrix(1,0,0,1,71,700) translate(0 25.1875)"/><path d="M280 840h581v680H280z" stroke="#7aa116" stroke-width="3" fill="#fff" fill-opacity="0"/><path d="M280 840h56v56h-56v-56z" stroke="#fff" stroke-opacity="0" fill="#7aa116"/><path d="M323.38 862.18c-.15-.17-.34-.25-.56-.25h-5.15v-5.58c-.03-2.54-.97-4.7-2.84-6.4-1.9-1.84-4.15-2.75-6.77-2.75-2.65 0-4.9.83-6.8 2.62-1.9 1.7-2.87 3.87-2.9 6.4v5.66h-5.15c-.24 0-.43.1-.58.25-.16.17-.22.34-.22.6V888c0 .43.34.8.8.8h29.6c.46 0 .8-.37.8-.8v-25.28c0-.2-.06-.38-.22-.54zm-23.46-5.9c.03-2.13.8-3.88 2.37-5.3 1.6-1.5 3.52-2.2 5.73-2.2 2.22 0 4.12.75 5.7 2.25 1.54 1.4 2.32 3.2 2.32 5.32v5.58H299.9zm22.1 30.94h-28.03v-23.7h28z" stroke="#fff" stroke-opacity="0" fill="#fff"/><path d="M307.2 877.3v6.25h1.6v-6.23c2.13-.4 3.62-2.2 3.63-4.35 0-2.43-1.97-4.4-4.4-4.43-2.2-.03-4.06 1.5-4.44 3.68-.42 2.4 1.2 4.68 3.6 5.1zm.82-7.15c.78 0 1.44.27 2 .83.54.55.82 1.2.8 2 .03 1.54-1.2 2.8-2.74 2.8h-.06c-1.56.13-2.92-1.04-3.04-2.6-.12-1.56 1.05-2.93 2.6-3.03.16-.02.3-.02.44 0z" stroke="#fff" stroke-opacity="0" fill="#fff"/><use xlink:href="#h" transform="matrix(1,0,0,1,351,860) translate(0 25.1875)"/><use xlink:href="#i" transform="matrix(1,0,0,1,351,860) translate(82.6591796875 25.1875)"/><path d="M633 920h120v120H633V920z" stroke="#000" stroke-opacity="0" fill="#ed7100"/><path d="M735.12 978.5h-17.1l8.43-8.4-2.15-2.1-11.55 11.58 11.55 11.6 2.15-2.1-7.6-7.57h16.27v-3zm-74.96-8.4l8.33 8.4h-15.94v3h15.1l-7.5 7.57 2.06 2.1 11.56-11.6L662.22 968l-2.06 2.1zm23.28 23.34h22.3V971h-22.3v22.44zm25.1-23.86h3.22v2.94h-3.06v4.46h3.06V980h-3.06v4.45h3.06v3.03h-3.06v4.45h3.06v3.02h-3.22c-.25.5-.75 1-1.32 1.26v3.2h-2.98v-2.94h-4.46v2.94h-2.97v-2.94h-4.45v2.94h-2.97v-2.94h-4.46v2.94h-2.97v-3.2c-.58-.24-1.07-.74-1.32-1.25h-3.22v-3.02h3.07v-4.45h-3.06v-3.03h3.07V980h-3.06v-3.02h3.07v-4.46h-3.06v-2.94h3.23c.25-.58.74-1.1 1.32-1.34v-3.2h2.97v3.03h4.46v-3.02h2.97v3.02h4.46v-3.02h2.98v3.02h4.46v-3.02h2.98v3.2c.57.24 1.07.75 1.32 1.33zm-13.2 46.7v-15.36h-3v15.37l-8-8-2.06 2.1 11.56 11.6 11.56-11.6-2.07-2.1-8 8zm-11-64.6l-2.06-2.1L693.84 938l11.56 11.6-2.07 2.1-8-8v16.73h-2.98V943.7l-8 8z" stroke="#000" stroke-opacity="0" fill="#fff"/><use xlink:href="#e" transform="matrix(1,0,0,1,603,1049) translate(10.984375 25.1875)"/><use xlink:href="#j" transform="matrix(1,0,0,1,603,1049) translate(118.5390625 25.1875)"/><use xlink:href="#k" transform="matrix(1,0,0,1,603,1049) translate(27.2216796875 62.938281249999996)"/><path d="M1406.12 1025.02c1.44-29.6 25.08-53.02 53.88-53.02 9.72 0 19.32 2.62 27.6 7.86 15.48 9.55 25.32 26.57 26.28 45.16h-107.76zm24.48-89.67c0-16.24 13.2-29.46 29.4-29.46s29.4 13.2 29.4 29.45c0 16.23-13.2 29.32-29.4 29.32s-29.4-13.1-29.4-29.32zm60.24 39.4c-5.28-3.27-10.92-5.5-16.8-6.94 12.6-5.5 21.36-17.92 21.36-32.45 0-19.5-15.84-35.35-35.4-35.35s-35.4 15.84-35.4 35.35c0 14.53 8.76 26.96 21.36 32.46-26.28 6.56-45.96 31.04-45.96 60.1 0 1.7 1.32 3 3 3h114c1.68 0 3-1.3 3-3 0-21.6-11.16-42.02-29.16-53.15z" stroke="#000" stroke-opacity="0" fill="#232f3e"/><use xlink:href="#l" transform="matrix(1,0,0,1,1370,1039.909090909091) translate(61.4912109375 25.1875)"/><path d="M646.5 1320h120v120h-120v-120z" stroke="#000" stroke-opacity="0" fill="#c925d1"/><path d="M737.92 1405.58h3.02v-4.54h-3.02v4.54zm-4.46 0h2.94v-4.54h-2.94v4.54zm-4.53 0h3.02v-4.54h-3.02v4.54zm16.55 11.98h-36.2v-9.88l6.2-6.15 8.07 5.26c.42.3 1 .3 1.5.07.52-.24.85-.73.85-1.3v-7.53h19.58v19.52zm1.5-22.5h-22.6c-.83 0-1.5.63-1.5 1.52v6.16l-6.72-4.45c-.6-.42-1.43-.34-1.93.23l-7.48 7.45c-.33.32-.5.65-.5 1.05v12c0 .88.67 1.53 1.5 1.53H747c.83 0 1.5-.65 1.5-1.54v-22.44c0-.9-.67-1.53-1.5-1.53zm-78.36-40.5h-3.03v-13.46c0-.9.66-1.54 1.5-1.54h13.53v3h-9.9l11 10.93-2.1 2.1-11-10.94v9.88zm14.6 44.54l-11 10.93h9.92v3h-13.52c-.84 0-1.52-.65-1.52-1.46v-13.53h3.03v9.88l11-10.93 2.1 2.1zm40.08-45.6l11-10.94h-9.9v-3h13.52c.84 0 1.5.65 1.5 1.54v13.45h-3.02v-9.9l-11 10.95-2.1-2.1zm13.6 22.1c0-4.04-4.78-8.18-12.93-10.93l1-2.84c9.5 3.25 14.96 8.27 14.96 13.78 0 5.6-5.46 10.62-14.95 13.78l-1-2.84c8.14-2.67 12.93-6.8 12.93-10.93zm-72.4 0c0-5.34 5.12-10.2 14.1-13.44l1.02 2.83c-7.56 2.75-12.1 6.72-12.1 10.6 0 3.97 4.54 7.94 12.1 10.7l-1 2.75c-9-3.16-14.12-8.1-14.12-13.44zm38.05 16.45c-8.82 0-12.85-2.27-12.85-3v-3.72c3.2 1.62 8.32 2.26 12.94 2.26 4.53 0 9.57-.65 12.68-2.2v3.65c0 .73-3.95 3-12.77 3zm-12.85-15.72c3.2 1.62 8.32 2.2 12.94 2.2 4.53 0 9.57-.58 12.68-2.12v5.2c0 .8-3.86 3-12.68 3-9.08 0-12.94-2.35-12.94-3v-5.27zm0-9.07c3.1 1.54 8.06 2.27 12.85 2.27 4.7 0 9.66-.73 12.77-2.27v5.27c0 .9-3.86 3-12.68 3-9.08 0-12.94-2.27-12.94-3v-5.27zm12.85-6.72c8.07 0 12.6 2.1 12.77 3-.17.9-4.7 3-12.77 3-8.15 0-12.68-2.1-12.85-3 .17-.9 4.7-3 12.85-3zm15.8 28.5v-25.5c0-4.13-8.24-6-15.8-6-7.64 0-15.87 1.87-15.87 6v25.5c0 4.14 7.98 6 15.87 6 7.8 0 15.8-1.86 15.8-6z" stroke="#000" stroke-opacity="0" fill="#fff"/><use xlink:href="#e" transform="matrix(1,0,0,1,616.5,1449) translate(10.1337890625 25.1875)"/><use xlink:href="#m" transform="matrix(1,0,0,1,616.5,1449) translate(117.6884765625 25.1875)"/><path d="M98 1315.42l57.98 8.62v5.1c0 7.53-25.98 13.63-58 13.63-32 0-57.98-6.1-57.98-13.64v-5.53z" fill="#8c3123"/><path d="M98.02 1352.13c24.2 0 44.93-3.54 53.58-8.5l2.88-4.78 1.15-4.4v5.45l-19 81c0 5.08-17.3 9.1-38.6 9.1-21.33 0-38.6-4.02-38.6-9.1l-19.02-81v-5.35l4.38 9.27c8.76 4.87 29.27 8.3 53.24 8.3z" fill="#8c3123"/><path d="M98 1310c32 0 58 6.12 58 13.62 0 7.5-26 13.57-58 13.57s-58-6.02-58-13.58c0-7.56 26-13.62 58-13.62z" fill="#e05243"/><path d="M98 1346.6c29.84 0 54.4-5.2 57.62-12.06l-19.02 81c0 5.05-17.28 9.1-38.6 9.1-21.33 0-38.6-4.05-38.6-9.1l-19.03-81c3.23 6.85 27.77 12.07 57.62 12.07z" fill="#e05243"/><use xlink:href="#n" transform="matrix(1,0,0,1,40,1430) translate(16.25146484375 25.1875)"/><path d="M360 920h120v120H360V920z" stroke="#000" stroke-opacity="0" fill="#ed7100"/><path d="M418.18 976.42c-.7.42-1.15 1.2-1.15 2.05v41.67l-31.5-17.63v-40.88l35.33-20.54 31.34 15.57-34.02 19.77zm37.7-19.77c0-.85-.47-1.7-1.3-2.14l-32.5-16.16c-.76-.43-1.68-.43-2.45 0l-35.85 20.8c-.76.42-1.22 1.28-1.22 2.13v41.58c0 .86.46 1.72 1.22 2.14l32.64 18.22c.3.25.77.34 1.15.34.46 0 .84-.1 1.22-.34.76-.43 1.22-1.2 1.22-2.06V978.8l34.62-20.1c.77-.42 1.23-1.2 1.23-2.05zm.06 45.95l-28.43 17.45v-15.57l14.84-9.67.07-.6c.1-.16.1-.16.1-1v-18.67l13.52-7.78-.08 35.85zm1.84-38.93c-.7-.5-1.68-.5-2.37 0l-14.36 8.3c-.46.25-1.53.77-1.53 1.96v19.17l-13.68 8.8c-.84.53-1.3 1.3-1.3 2.15V1021c0 .85.46 1.62 1.23 2.13.38.17.84.34 1.3.34.38 0 .84-.17 1.22-.34l29.5-18.05c.7-.43 1.15-1.28 1.15-2.14l.08-37.22c0-.85-.46-1.62-1.22-2.05z" stroke="#000" stroke-opacity="0" fill="#fff"/><use xlink:href="#o" transform="matrix(1,0,0,1,330,1049) translate(39.87890625 25.1875)"/><use xlink:href="#p" transform="matrix(1,0,0,1,330,1049) translate(50.0478515625 62.938281249999996)"/><use xlink:href="#q" transform="matrix(1,0,0,1,330,1049) translate(30.10986328125 100.68906249999999)"/><use xlink:href="#r" transform="matrix(1,0,0,1,330,1049) translate(39.60595703125 138.43984375)"/><use xlink:href="#s" transform="matrix(1,0,0,1,330,1049) translate(1.06298828125 176.19062499999998)"/><use xlink:href="#t" transform="matrix(1,0,0,1,330,1049) translate(118.10107421875 176.19062499999998)"/><path d="M360 1320h120v120H360v-120z" stroke="#000" stroke-opacity="0" fill="#ed7100"/><path d="M454.44 1395.54l-10.7-6.24c1.12-2.86 1.72-5.98 1.72-9.26 0-12.13-8.3-22.24-19.54-24.94v-12.9l28.52 17.37v35.97zm-34.44 23.4L385.56 1399v-39.52l28.52-17.27v12.9c-11.23 2.7-19.54 12.8-19.54 24.94 0 14.15 11.38 25.6 25.46 25.6 6.9 0 13.1-2.7 17.67-7.16l8.7 5.14-26.37 15.34zm13.48-40.42c-.3-7.33-1.72-14.32-3.9-18.95 7.2 3.45 12.3 10.53 12.8 18.95h-8.9zm.07 2.95h8.84c-.53 8.25-5.4 15.24-12.37 18.78 2.4-5.13 3.45-11.96 3.52-18.78zm-12.05 0h8.98c.08 7.83-1.35 15.67-4.86 20.47-1.35.34-2.7.5-4.12.6v-21.07zm-7.04 20.47c-3.15-3.96-4.64-12.05-4.72-20.47h8.76v21.06c-1.42-.1-2.77-.25-4.04-.6zm-7.8-20.47c.1 7.07 1.2 13.98 3.38 18.78-6.96-3.45-11.9-10.53-12.43-18.78h9.07zm.1-2.95h-9.15c.53-8.5 5.7-15.67 13.04-19.04-2.32 4.97-3.67 11.96-3.9 19.04zm11.74 0h-8.68c.3-8.26 2.02-16.26 5.1-20.56 1.2-.25 2.38-.42 3.58-.5v21.06zm3-21.06c1.27.08 2.47.25 3.67.6 2.62 3.1 4.8 11.45 5.24 20.46h-8.9v-21.06zm35.2 0l-31.53-19.2c-.45-.34-1.05-.34-1.5-.1-.45.26-.75.77-.75 1.36v15.08c-.97-.17-1.95-.26-2.92-.26s-1.95.1-2.92.26v-15.08c0-.6-.3-1.1-.75-1.35s-1.05-.25-1.5.08l-31.52 19.13c-.44.25-.74.75-.74 1.26v41.2c0 .58.3 1.1.75 1.34l35.95 20.9c.23.08.45.16.75.16.23 0 .52-.08.75-.17l29.35-17.1c.45-.25.75-.76.75-1.26 0-.58-.3-1.1-.75-1.34l-10.33-6.15c1.05-1.25 1.94-2.7 2.7-4.12l12.72 7.4c.22.1.44.18.74.18.23 0 .53-.08.75-.17.44-.34.74-.85.74-1.35v-39.43c0-.5-.3-1-.75-1.26z" stroke="#000" stroke-opacity="0" fill="#fff"/><use xlink:href="#e" transform="matrix(1,0,0,1,330,1449) translate(10.57177734375 25.1875)"/><use xlink:href="#u" transform="matrix(1,0,0,1,330,1449) translate(118.12646484375 25.1875)"/><path d="M1120 906a6 6 0 0 1 6-6h148a6 6 0 0 1 6 6v148a6 6 0 0 1-6 6h-148a6 6 0 0 1-6-6z" stroke="#000" stroke-width="2" fill="#fff"/><use xlink:href="#v" transform="matrix(1,0,0,1,1125,905) translate(36.279296875 86.125)"/><path d="M1130.72 1086a6 6 0 0 1 6-6h126.56a6 6 0 0 1 6 6v29.47a6 6 0 0 1-6 6h-126.56a6 6 0 0 1-6-6z" fill="none"/><use xlink:href="#w" transform="matrix(1,0,0,1,1135.7186328125,1085) translate(0 25.4580078125)"/><path d="M739.33 474.6c-4.56 0-8.2-3.72-8.2-8.28 0-4.44 3.64-8.16 8.2-8.16 4.56 0 8.18 3.72 8.18 8.16 0 4.56-3.6 8.28-8.17 8.28m-65.66-92.76c-4.56 0-8.18-3.72-8.18-8.16 0-4.56 3.6-8.28 8.17-8.28 4.56 0 8.2 3.72 8.2 8.28 0 4.44-3.64 8.16-8.2 8.16m65.66 30c4.56 0 8.18 3.6 8.18 8.16 0 4.56-3.6 8.16-8.17 8.16-4.56 0-8.2-3.6-8.2-8.16 0-4.56 3.64-8.16 8.2-8.16m0 40.92c-6.6 0-12.1 4.68-13.4 10.92H712c-1.87 0-2.8-.96-2.8-2.64v-38.28h16.74c1.3 6.24 6.8 10.92 13.4 10.92 7.52 0 13.66-6.12 13.66-13.68s-6.14-13.68-13.67-13.68c-6.6 0-12.1 4.8-13.4 10.92H709.2v-38.28c0-4.8-3.35-8.04-8.2-8.04h-13.94c-1.3-6.24-6.8-10.92-13.4-10.92-7.52 0-13.66 6.12-13.66 13.68 0 7.44 6.14 13.56 13.67 13.56 6.6 0 12.1-4.68 13.4-10.92H701c1.87 0 2.8.84 2.8 2.64v82.08c0 4.8 3.35 8.04 8.2 8.04h13.94c1.3 6.24 6.8 10.92 13.4 10.92 7.52 0 13.66-6.12 13.66-13.68 0-7.44-6.14-13.56-13.67-13.56" stroke="#000" stroke-opacity="0" fill="#232f3e"/><use xlink:href="#x" transform="matrix(1,0,0,1,630,489) translate(36.0654296875 25.1875)"/><use xlink:href="#y" transform="matrix(1,0,0,1,630,489) translate(30.365234375 62.938281249999996)"/><path d="M705.34 623.94L695.1 902.57l-2.93-.1 10.22-278.6 1.28-70.12h2.95zm2.6-142.4l-.18 10.46h-2.96l.2-10.52z" stroke="#3a414a" stroke-width=".05" fill="#3a414a"/><path d="M708.03 477.03l-.08 4.54-2.95-.05.08-4.54z" fill="#3a414a"/><path stroke="#3a414a" stroke-width=".05" fill="#3a414a"/><path d="M701.08 904.3L693.1 917l-7-13.25z" fill="#3a414a"/><path d="M703.7 902.9L693 919.96l-9.4-17.77zm-10.48 11.15l5.25-8.37-9.88-.37zM696.46 1147.9l4.5 154.57-2.94.1-4.5-154.6-.56-30.22h2.95zm-1.75-94.9h-2.94l-.2-11.47 2.94-.05z" stroke="#3a414a" stroke-width=".05" fill="#3a414a"/><path d="M694.5 1041.52l-2.95.05-.02-1.57h2.95z" fill="#3a414a"/><path stroke="#3a414a" stroke-width=".05" fill="#3a414a"/><path d="M699.9 1317l-7.86-12.77 15-.43z" fill="#3a414a"/><path d="M700 1319.95l-10.56-17.12 20.1-.58zm-5.37-14.32l5.2 8.42 4.7-8.7z" stroke="#3a414a" stroke-width=".05" fill="#3a414a"/><path d="M1398.5 965.46h-100" stroke="#3a414a" stroke-width="3" stroke-linejoin="round" fill="none"/><path d="M1403 966.93h-4.54v-2.95h4.54z" stroke="#3a414a" stroke-width=".05" fill="#3a414a"/><path d="M1284 965.46l13-7.5v15z" stroke="#3a414a" stroke-width="3" fill="#3a414a"/><path d="M754.5 980h347" stroke="#3a414a" stroke-width="3" stroke-linejoin="round" fill="none"/><path d="M754.54 978.52v2.96H753v-2.96z" stroke="#3a414a" stroke-width=".05" fill="#3a414a"/><path d="M1116 980l-13 7.5v-15z" stroke="#3a414a" stroke-width="3" fill="#3a414a"/><path d="M1117.5 980h-347" stroke="#3a414a" stroke-width="3" stroke-linejoin="round" fill="none"/><path d="M1119 981.48h-1.54v-2.96h1.54z" stroke="#3a414a" stroke-width=".05" fill="#3a414a"/><path d="M756 980l13-7.5v15z" stroke="#3a414a" stroke-width="3" fill="#3a414a"/><path d="M421.48 1302.5h-2.96V1231h2.96zm0-249.5h-2.96v-11.5h2.96z" stroke="#3a414a" stroke-width=".05" fill="#3a414a"/><path d="M421.48 1041.54h-2.96V1040h2.96z" fill="#3a414a"/><path stroke="#3a414a" stroke-width=".05" fill="#3a414a"/><path d="M420 1317l-7.5-13h15z" fill="#3a414a"/><path d="M420 1319.95l-10.06-17.4h20.12zm-4.94-14.47l4.94 8.57 4.94-8.57zM421.48 1302.5h-2.96V1231h2.96zm0-249.5h-2.96v-11.5h2.96z" stroke="#3a414a" stroke-width=".05" fill="#3a414a"/><path d="M421.48 1041.54h-2.96V1040h2.96z" fill="#3a414a"/><path stroke="#3a414a" stroke-width=".05" fill="#3a414a"/><path d="M420 1317l-7.5-13h15z" fill="#3a414a"/><path d="M420 1319.95l-10.06-17.4h20.12zm-4.94-14.47l4.94 8.57 4.94-8.57zM421.48 1302.5h-2.96V1231h2.96zm0-249.5h-2.96v-11.5h2.96z" stroke="#3a414a" stroke-width=".05" fill="#3a414a"/><path d="M421.48 1041.54h-2.96V1040h2.96z" fill="#3a414a"/><path stroke="#3a414a" stroke-width=".05" fill="#3a414a"/><path d="M420 1317l-7.5-13h15z" fill="#3a414a"/><path d="M420 1319.95l-10.06-17.4h20.12zm-4.94-14.47l4.94 8.57 4.94-8.57z" stroke="#3a414a" stroke-width=".05" fill="#3a414a"/><path d="M358.5 1380H163.7" stroke="#3a414a" stroke-width="3" stroke-linejoin="round" fill="none"/><path d="M360 1381.47h-1.54v-2.94H360z" stroke="#3a414a" stroke-width=".05" fill="#3a414a"/><path d="M149.22 1380l13-7.5v15z" stroke="#3a414a" stroke-width="3" fill="#3a414a"/><path d="M631.5 980h-134" stroke="#3a414a" stroke-width="3" stroke-linejoin="round" fill="none"/><path d="M633 981.48h-1.54v-2.96H633z" stroke="#3a414a" stroke-width=".05" fill="#3a414a"/><path d="M483 980l13-7.5v15z" stroke="#3a414a" stroke-width="3" fill="#3a414a"/><defs><path d="M600 0L52-1490h200c166 485 304 806 458 1336 156-533 285-846 449-1336h202L819 0H600" id="z"/><path d="M158 0v-1118h180V0H158zm91-1301c-68 0-125-53-125-119s57-119 125-119c69 0 126 53 126 119s-57 119-126 119" id="A"/><path d="M158 0v-1118h174v172h12c41-113 157-188 290-188 26 0 70 2 91 3v181c-11-2-60-10-108-10-161 0-279 109-279 260V0H158" id="B"/><path d="M598-1118v154H368v674c0 100 37 144 132 144 23 0 62-6 92-12L629-6c-37 13-88 20-134 20-193 0-307-107-307-290v-688H20v-154h168v-266h180v266h230" id="C"/><path d="M537 14c-226 0-379-139-379-422v-710h180v695c0 172 97 275 253 275 160 0 281-109 281-300v-670h181V0H879v-209C806-46 684 14 537 14" id="D"/><path d="M471 26C259 26 90-98 90-318c0-256 228-303 435-329 202-27 287-16 287-108 0-139-79-219-234-219-161 0-248 86-283 164l-173-57c86-203 278-265 451-265 150 0 419 46 419 395V0H815v-152h-12C765-73 660 26 471 26zm31-159c199 0 310-134 310-271v-155c-30 35-226 55-295 64-131 17-246 59-246 186 0 116 97 176 231 176" id="E"/><path d="M338-1490V0H158v-1490h180" id="F"/><g id="a"><use transform="matrix(0.0126953125,0,0,0.0126953125,0,0)" xlink:href="#z"/><use transform="matrix(0.0126953125,0,0,0.0126953125,17.9384765625,0)" xlink:href="#A"/><use transform="matrix(0.0126953125,0,0,0.0126953125,24.2353515625,0)" xlink:href="#B"/><use transform="matrix(0.0126953125,0,0,0.0126953125,34.4296875,0)" xlink:href="#C"/><use transform="matrix(0.0126953125,0,0,0.0126953125,42.935546875,0)" xlink:href="#D"/><use transform="matrix(0.0126953125,0,0,0.0126953125,58.3095703125,0)" xlink:href="#E"/><use transform="matrix(0.0126953125,0,0,0.0126953125,72.9091796875,0)" xlink:href="#F"/></g><path d="M158 418v-1536h174v179h20c37-59 106-193 324-193 279 0 474 222 474 576 0 356-194 580-473 580-213 0-288-135-325-197h-14v591H158zm492-555c209 0 317-186 317-421 0-232-105-413-317-413-206 0-314 166-314 413 0 249 111 421 314 421" id="G"/><path d="M677 24c-213 0-288-135-325-197h-20V0H158v-1490h180v551h14c37-59 106-193 324-193 279 0 474 222 474 576 0 356-194 580-473 580zm-27-161c209 0 317-186 317-421 0-232-105-413-317-413-206 0-314 166-314 413 0 249 111 421 314 421" id="H"/><path d="M613 24c-304 0-509-231-509-576 0-350 205-580 509-580 216 0 392 114 453 309l-173 49c-33-115-133-197-280-197-223 0-326 196-326 419 0 220 103 415 326 415 150 0 252-85 285-206l172 49C1010-95 832 24 613 24" id="I"/><g id="b"><use transform="matrix(0.0126953125,0,0,0.0126953125,0,0)" xlink:href="#G"/><use transform="matrix(0.0126953125,0,0,0.0126953125,15.919921875,0)" xlink:href="#D"/><use transform="matrix(0.0126953125,0,0,0.0126953125,31.2939453125,0)" xlink:href="#H"/><use transform="matrix(0.0126953125,0,0,0.0126953125,47.2138671875,0)" xlink:href="#F"/><use transform="matrix(0.0126953125,0,0,0.0126953125,53.5107421875,0)" xlink:href="#A"/><use transform="matrix(0.0126953125,0,0,0.0126953125,59.8076171875,0)" xlink:href="#I"/></g><path d="M613 24c-304 0-509-231-509-576 0-350 205-580 509-580 305 0 511 230 511 580 0 345-206 576-511 576zm0-161c226 0 329-195 329-415 0-222-103-419-329-419-223 0-326 196-326 419 0 220 103 415 326 415" id="J"/><path d="M577 24c-279 0-473-224-473-580 0-354 195-576 474-576 218 0 287 134 324 193h14v-551h180V0H922v-173h-20C865-111 790 24 577 24zm27-161c203 0 314-172 314-421 0-247-108-413-314-413-212 0-317 181-317 413 0 235 108 421 317 421" id="K"/><g id="c"><use transform="matrix(0.0126953125,0,0,0.0126953125,0,0)" xlink:href="#I"/><use transform="matrix(0.0126953125,0,0,0.0126953125,14.853515625,0)" xlink:href="#F"/><use transform="matrix(0.0126953125,0,0,0.0126953125,21.150390625,0)" xlink:href="#J"/><use transform="matrix(0.0126953125,0,0,0.0126953125,36.740234375,0)" xlink:href="#D"/><use transform="matrix(0.0126953125,0,0,0.0126953125,52.1142578125,0)" xlink:href="#K"/></g><path d="M218-607c0-325 108-727 258-974h175c-155 315-250 682-250 974 0 265 78 531 250 886H476C306-10 218-315 218-607" id="L"/><path d="M180 0v-1490h510c348 0 508 209 508 474 0 266-160 477-507 477H370V0H180zm190-706h312c236 0 327-133 327-310 0-176-91-307-329-307H370v617" id="M"/><path d="M783 20c-382 0-661-292-661-764 0-473 279-766 661-766 302 0 548 182 601 489h-190c-42-204-217-313-411-313-268 0-476 208-476 590 0 381 209 588 476 588 195 0 369-110 411-313h190c-52 303-296 489-601 489" id="N"/><path d="M96 279C273-86 346-350 346-607c0-292-95-659-250-974h175c150 246 258 650 258 974 0 297-91 602-258 886H96" id="O"/><g id="d"><use transform="matrix(0.0126953125,0,0,0.0126953125,0,0)" xlink:href="#L"/><use transform="matrix(0.0126953125,0,0,0.0126953125,9.4833984375,0)" xlink:href="#z"/><use transform="matrix(0.0126953125,0,0,0.0126953125,27.421875,0)" xlink:href="#M"/><use transform="matrix(0.0126953125,0,0,0.0126953125,44.02734375,0)" xlink:href="#N"/><use transform="matrix(0.0126953125,0,0,0.0126953125,63.01953125,0)" xlink:href="#O"/></g><path d="M52 0l541-1490h220L1361 0h-200l-149-416H398L254 0H52zm404-582h497c-103-290-145-390-251-756-108 377-145 460-246 756" id="P"/><path d="M158 0v-1118h175l1 205c55-151 181-225 313-225 147 0 245 90 285 228 53-141 190-228 352-228 194 0 352 125 352 384V0h-181v-749c0-161-105-225-225-225-151 0-243 103-243 244V0H807v-767c0-124-93-207-219-207-131 0-250 92-250 270V0H158" id="Q"/><path d="M126 0v-134l627-806v-11H146v-167h839v143L376-178v11h629V0H126" id="R"/><path d="M338-670V0H158v-1118h173l1 207c72-158 192-221 342-221 226 0 378 139 378 422V0H872v-695c0-172-96-275-252-275-161 0-282 109-282 300" id="S"/><g id="e"><use transform="matrix(0.0126953125,0,0,0.0126953125,0,0)" xlink:href="#P"/><use transform="matrix(0.0126953125,0,0,0.0126953125,17.9384765625,0)" xlink:href="#Q"/><use transform="matrix(0.0126953125,0,0,0.0126953125,40.7138671875,0)" xlink:href="#E"/><use transform="matrix(0.0126953125,0,0,0.0126953125,55.3134765625,0)" xlink:href="#R"/><use transform="matrix(0.0126953125,0,0,0.0126953125,69.291015625,0)" xlink:href="#J"/><use transform="matrix(0.0126953125,0,0,0.0126953125,84.880859375,0)" xlink:href="#S"/></g><g id="f"><use transform="matrix(0.0126953125,0,0,0.0126953125,0,0)" xlink:href="#N"/><use transform="matrix(0.0126953125,0,0,0.0126953125,18.9921875,0)" xlink:href="#F"/><use transform="matrix(0.0126953125,0,0,0.0126953125,25.2890625,0)" xlink:href="#J"/><use transform="matrix(0.0126953125,0,0,0.0126953125,40.87890625,0)" xlink:href="#D"/><use transform="matrix(0.0126953125,0,0,0.0126953125,56.2529296875,0)" xlink:href="#K"/></g><path d="M180 0v-1490h510c348 0 508 194 508 460 0 198-88 351-276 417L1256 0h-220L726-579c-117 2-238 0-356 1V0H180zm190-747h312c235 0 327-108 327-283 0-177-92-293-329-293H370v576" id="T"/><path d="M628 24c-324 0-524-230-524-574 0-343 198-582 503-582 237 0 487 146 487 559v75H286c9 234 145 362 343 362 132 0 231-58 273-172l174 48C1024-91 857 24 628 24zM287-650h624c-17-190-120-322-304-322-192 0-309 151-320 322" id="U"/><path d="M611 442c-248 0-391-105-460-228l146-94c47 65 117 165 314 165 178 0 307-82 307-266v-224h-17C863-141 792-18 576-18c-268 0-472-195-472-546 0-346 197-568 476-568 216 0 288 133 326 193h17v-179h175V29c0 289-215 413-487 413zm-5-620c203 0 314-146 314-390 0-237-108-403-314-403-213 0-319 180-319 403 0 230 109 390 319 390" id="V"/><g id="g"><use transform="matrix(0.0126953125,0,0,0.0126953125,0,0)" xlink:href="#T"/><use transform="matrix(0.0126953125,0,0,0.0126953125,16.3515625,0)" xlink:href="#U"/><use transform="matrix(0.0126953125,0,0,0.0126953125,31.509765625,0)" xlink:href="#V"/><use transform="matrix(0.0126953125,0,0,0.0126953125,47.455078125,0)" xlink:href="#A"/><use transform="matrix(0.0126953125,0,0,0.0126953125,53.751953125,0)" xlink:href="#J"/><use transform="matrix(0.0126953125,0,0,0.0126953125,69.341796875,0)" xlink:href="#S"/></g><g id="h"><use transform="matrix(0.0126953125,0,0,0.0126953125,0,0)" xlink:href="#M"/><use transform="matrix(0.0126953125,0,0,0.0126953125,16.60546875,0)" xlink:href="#D"/><use transform="matrix(0.0126953125,0,0,0.0126953125,31.9794921875,0)" xlink:href="#H"/><use transform="matrix(0.0126953125,0,0,0.0126953125,47.8994140625,0)" xlink:href="#F"/><use transform="matrix(0.0126953125,0,0,0.0126953125,54.1962890625,0)" xlink:href="#A"/><use transform="matrix(0.0126953125,0,0,0.0126953125,60.4931640625,0)" xlink:href="#I"/></g><path d="M538 24C308 24 148-78 108-271l171-41c32 123 123 178 257 178 156 0 256-77 256-169 0-77-54-128-164-154l-186-44c-203-48-300-148-300-305 0-192 176-326 414-326 230 0 351 112 402 269l-163 42c-31-80-94-158-238-158-133 0-233 69-233 162 0 83 57 129 188 160l169 40c203 48 298 149 298 302 0 196-179 339-441 339" id="W"/><g id="i"><use transform="matrix(0.0126953125,0,0,0.0126953125,0,0)" xlink:href="#W"/><use transform="matrix(0.0126953125,0,0,0.0126953125,13.7236328125,0)" xlink:href="#D"/><use transform="matrix(0.0126953125,0,0,0.0126953125,29.09765625,0)" xlink:href="#H"/><use transform="matrix(0.0126953125,0,0,0.0126953125,45.017578125,0)" xlink:href="#S"/><use transform="matrix(0.0126953125,0,0,0.0126953125,60.37890625,0)" xlink:href="#U"/><use transform="matrix(0.0126953125,0,0,0.0126953125,75.537109375,0)" xlink:href="#C"/></g><path d="M180 0v-1490h908v168H370v486h669v168H370v500h727V0H180" id="X"/><path d="M154 0v-137l495-537c165-179 249-281 249-418 0-156-121-253-280-253-170 0-278 110-278 278H158c0-264 200-443 465-443 266 0 455 183 455 416 0 161-73 288-336 568L416-179v12h687V0H154" id="Y"/><g id="j"><use transform="matrix(0.0126953125,0,0,0.0126953125,0,0)" xlink:href="#X"/><use transform="matrix(0.0126953125,0,0,0.0126953125,15.6279296875,0)" xlink:href="#N"/><use transform="matrix(0.0126953125,0,0,0.0126953125,34.6201171875,0)" xlink:href="#Y"/></g><path d="M180 0v-1490h528c311 0 458 177 458 395 0 191-114 278-244 313v14c139 9 302 137 302 371 0 225-148 397-499 397H180zm190-168h350c232 0 321-102 321-231 0-149-120-277-311-277H370v508zm0-668h328c160 0 286-101 286-255 0-129-87-231-280-231H370v486" id="Z"/><path d="M158 0v-1490h180v865h22l478-493h223L593-638 1096 0H865L456-523 338-412V0H158" id="aa"/><g id="k"><use transform="matrix(0.0126953125,0,0,0.0126953125,0,0)" xlink:href="#L"/><use transform="matrix(0.0126953125,0,0,0.0126953125,9.4833984375,0)" xlink:href="#Z"/><use transform="matrix(0.0126953125,0,0,0.0126953125,26.4951171875,0)" xlink:href="#E"/><use transform="matrix(0.0126953125,0,0,0.0126953125,41.0947265625,0)" xlink:href="#I"/><use transform="matrix(0.0126953125,0,0,0.0126953125,55.9482421875,0)" xlink:href="#aa"/><use transform="matrix(0.0126953125,0,0,0.0126953125,69.6337890625,0)" xlink:href="#U"/><use transform="matrix(0.0126953125,0,0,0.0126953125,84.7919921875,0)" xlink:href="#S"/><use transform="matrix(0.0126953125,0,0,0.0126953125,100.1533203125,0)" xlink:href="#K"/><use transform="matrix(0.0126953125,0,0,0.0126953125,116.0732421875,0)" xlink:href="#O"/></g><path d="M763 24c-353 0-583-224-583-531v-983h190v968c0 214 149 370 393 370 243 0 391-156 391-370v-968h190v983c0 307-230 531-581 531" id="ab"/><g id="l"><use transform="matrix(0.0126953125,0,0,0.0126953125,0,0)" xlink:href="#ab"/><use transform="matrix(0.0126953125,0,0,0.0126953125,19.34765625,0)" xlink:href="#W"/><use transform="matrix(0.0126953125,0,0,0.0126953125,33.0712890625,0)" xlink:href="#U"/><use transform="matrix(0.0126953125,0,0,0.0126953125,48.2294921875,0)" xlink:href="#B"/></g><path d="M645 0H180v-1490h484c435 0 692 280 692 742 0 466-257 748-711 748zM370-168h263c363 0 539-218 539-580 0-358-176-574-521-574H370v1154" id="ac"/><path d="M657 26c-323 0-524-166-541-416h195c15 169 171 246 346 246 202 0 356-106 356-265 5-203-294-238-475-293-239-73-380-191-380-389 0-252 224-419 512-419 294 0 499 171 508 396H992c-17-145-151-228-328-228-193 0-321 102-321 242 0 156 175 211 284 241l149 41c160 44 422 134 422 412 0 244-197 432-541 432" id="ad"/><g id="m"><use transform="matrix(0.0126953125,0,0,0.0126953125,0,0)" xlink:href="#T"/><use transform="matrix(0.0126953125,0,0,0.0126953125,16.732421875,0)" xlink:href="#ac"/><use transform="matrix(0.0126953125,0,0,0.0126953125,35.49609375,0)" xlink:href="#ad"/></g><g id="n"><use transform="matrix(0.0126953125,0,0,0.0126953125,0,0)" xlink:href="#H"/><use transform="matrix(0.0126953125,0,0,0.0126953125,15.919921875,0)" xlink:href="#D"/><use transform="matrix(0.0126953125,0,0,0.0126953125,31.2939453125,0)" xlink:href="#I"/><use transform="matrix(0.0126953125,0,0,0.0126953125,46.1474609375,0)" xlink:href="#aa"/><use transform="matrix(0.0126953125,0,0,0.0126953125,59.8330078125,0)" xlink:href="#U"/><use transform="matrix(0.0126953125,0,0,0.0126953125,74.9912109375,0)" xlink:href="#C"/></g><g id="o"><use transform="matrix(0.0126953125,0,0,0.0126953125,0,0)" xlink:href="#P"/><use transform="matrix(0.0126953125,0,0,0.0126953125,17.9384765625,0)" xlink:href="#Q"/><use transform="matrix(0.0126953125,0,0,0.0126953125,40.7138671875,0)" xlink:href="#E"/><use transform="matrix(0.0126953125,0,0,0.0126953125,55.3134765625,0)" xlink:href="#R"/><use transform="matrix(0.0126953125,0,0,0.0126953125,69.291015625,0)" xlink:href="#J"/><use transform="matrix(0.0126953125,0,0,0.0126953125,84.880859375,0)" xlink:href="#S"/></g><g id="p"><use transform="matrix(0.0126953125,0,0,0.0126953125,0,0)" xlink:href="#X"/><use transform="matrix(0.0126953125,0,0,0.0126953125,15.6279296875,0)" xlink:href="#F"/><use transform="matrix(0.0126953125,0,0,0.0126953125,21.9248046875,0)" xlink:href="#E"/><use transform="matrix(0.0126953125,0,0,0.0126953125,36.5244140625,0)" xlink:href="#W"/><use transform="matrix(0.0126953125,0,0,0.0126953125,50.248046875,0)" xlink:href="#C"/><use transform="matrix(0.0126953125,0,0,0.0126953125,58.75390625,0)" xlink:href="#A"/><use transform="matrix(0.0126953125,0,0,0.0126953125,65.05078125,0)" xlink:href="#I"/></g><g id="q"><use transform="matrix(0.0126953125,0,0,0.0126953125,0,0)" xlink:href="#N"/><use transform="matrix(0.0126953125,0,0,0.0126953125,18.9921875,0)" xlink:href="#J"/><use transform="matrix(0.0126953125,0,0,0.0126953125,34.58203125,0)" xlink:href="#S"/><use transform="matrix(0.0126953125,0,0,0.0126953125,49.943359375,0)" xlink:href="#C"/><use transform="matrix(0.0126953125,0,0,0.0126953125,58.576171875,0)" xlink:href="#E"/><use transform="matrix(0.0126953125,0,0,0.0126953125,73.17578125,0)" xlink:href="#A"/><use transform="matrix(0.0126953125,0,0,0.0126953125,79.47265625,0)" xlink:href="#S"/><use transform="matrix(0.0126953125,0,0,0.0126953125,94.833984375,0)" xlink:href="#U"/><use transform="matrix(0.0126953125,0,0,0.0126953125,109.9921875,0)" xlink:href="#B"/></g><path d="M140 405l46-156c120 36 205 19 263-150l32-93L54-1118h197c107 313 237 620 324 950 87-331 219-637 326-950h196L606 167c-68 178-176 259-334 259-64 0-113-12-132-21" id="ae"/><g id="r"><use transform="matrix(0.0126953125,0,0,0.0126953125,0,0)" xlink:href="#T"/><use transform="matrix(0.0126953125,0,0,0.0126953125,16.3515625,0)" xlink:href="#U"/><use transform="matrix(0.0126953125,0,0,0.0126953125,31.509765625,0)" xlink:href="#V"/><use transform="matrix(0.0126953125,0,0,0.0126953125,47.455078125,0)" xlink:href="#A"/><use transform="matrix(0.0126953125,0,0,0.0126953125,53.751953125,0)" xlink:href="#W"/><use transform="matrix(0.0126953125,0,0,0.0126953125,67.4755859375,0)" xlink:href="#C"/><use transform="matrix(0.0126953125,0,0,0.0126953125,75.9814453125,0)" xlink:href="#B"/><use transform="matrix(0.0126953125,0,0,0.0126953125,86.17578125,0)" xlink:href="#ae"/></g><g id="s"><use transform="matrix(0.0126953125,0,0,0.0126953125,0,0)" xlink:href="#L"/><use transform="matrix(0.0126953125,0,0,0.0126953125,9.4833984375,0)" xlink:href="#P"/><use transform="matrix(0.0126953125,0,0,0.0126953125,27.421875,0)" xlink:href="#Q"/><use transform="matrix(0.0126953125,0,0,0.0126953125,50.197265625,0)" xlink:href="#E"/><use transform="matrix(0.0126953125,0,0,0.0126953125,64.796875,0)" xlink:href="#R"/><use transform="matrix(0.0126953125,0,0,0.0126953125,78.7744140625,0)" xlink:href="#J"/><use transform="matrix(0.0126953125,0,0,0.0126953125,94.3642578125,0)" xlink:href="#S"/></g><g id="t"><use transform="matrix(0.0126953125,0,0,0.0126953125,0,0)" xlink:href="#X"/><use transform="matrix(0.0126953125,0,0,0.0126953125,15.6279296875,0)" xlink:href="#N"/><use transform="matrix(0.0126953125,0,0,0.0126953125,34.6201171875,0)" xlink:href="#T"/><use transform="matrix(0.0126953125,0,0,0.0126953125,51.3525390625,0)" xlink:href="#O"/></g><g id="u"><use transform="matrix(0.0126953125,0,0,0.0126953125,0,0)" xlink:href="#X"/><use transform="matrix(0.0126953125,0,0,0.0126953125,15.6279296875,0)" xlink:href="#N"/><use transform="matrix(0.0126953125,0,0,0.0126953125,34.6201171875,0)" xlink:href="#ad"/></g><g id="v"><use transform="matrix(0.0126953125,0,0,0.0126953125,0,0)" xlink:href="#z"/><use transform="matrix(0.0126953125,0,0,0.0126953125,16.6181640625,0)" xlink:href="#U"/><use transform="matrix(0.0126953125,0,0,0.0126953125,31.7763671875,0)" xlink:href="#B"/><use transform="matrix(0.0126953125,0,0,0.0126953125,41.1328125,0)" xlink:href="#I"/><use transform="matrix(0.0126953125,0,0,0.0126953125,55.986328125,0)" xlink:href="#U"/><use transform="matrix(0.0126953125,0,0,0.0126953125,71.14453125,0)" xlink:href="#F"/></g><path d="M180 0v-1490h901v168H370v510h643v168H370V0H180" id="af"/><g id="w"><use transform="matrix(0.0126953125,0,0,0.0126953125,0,0)" xlink:href="#L"/><use transform="matrix(0.0126953125,0,0,0.0126953125,9.4833984375,0)" xlink:href="#af"/><use transform="matrix(0.0126953125,0,0,0.0126953125,24.0703125,0)" xlink:href="#B"/><use transform="matrix(0.0126953125,0,0,0.0126953125,33.4267578125,0)" xlink:href="#J"/><use transform="matrix(0.0126953125,0,0,0.0126953125,49.0166015625,0)" xlink:href="#S"/><use transform="matrix(0.0126953125,0,0,0.0126953125,64.3779296875,0)" xlink:href="#C"/><use transform="matrix(0.0126953125,0,0,0.0126953125,72.6298828125,0)" xlink:href="#U"/><use transform="matrix(0.0126953125,0,0,0.0126953125,87.7880859375,0)" xlink:href="#S"/><use transform="matrix(0.0126953125,0,0,0.0126953125,103.1494140625,0)" xlink:href="#K"/><use transform="matrix(0.0126953125,0,0,0.0126953125,119.0693359375,0)" xlink:href="#O"/></g><path d="M789 20c-398 0-667-293-667-764 0-473 273-766 655-766 315 0 558 198 612 487h-196c-61-191-204-311-415-311-262 0-471 207-471 590 0 380 208 588 482 588 249 0 420-165 425-427H828v-166h572v163c0 370-256 606-611 606" id="ag"/><path d="M338-670V0H158v-1490h180v566c73-149 190-208 336-208 226 0 379 139 379 422V0H872v-695c0-172-96-275-252-275-161 0-282 109-282 300" id="ah"/><g id="x"><use transform="matrix(0.0126953125,0,0,0.0126953125,0,0)" xlink:href="#ag"/><use transform="matrix(0.0126953125,0,0,0.0126953125,19.3984375,0)" xlink:href="#A"/><use transform="matrix(0.0126953125,0,0,0.0126953125,25.6953125,0)" xlink:href="#C"/><use transform="matrix(0.0126953125,0,0,0.0126953125,34.201171875,0)" xlink:href="#ah"/><use transform="matrix(0.0126953125,0,0,0.0126953125,49.5751953125,0)" xlink:href="#D"/><use transform="matrix(0.0126953125,0,0,0.0126953125,64.94921875,0)" xlink:href="#H"/></g><g id="y"><use transform="matrix(0.0126953125,0,0,0.0126953125,0,0)" xlink:href="#P"/><use transform="matrix(0.0126953125,0,0,0.0126953125,17.9384765625,0)" xlink:href="#I"/><use transform="matrix(0.0126953125,0,0,0.0126953125,32.7919921875,0)" xlink:href="#C"/><use transform="matrix(0.0126953125,0,0,0.0126953125,41.2978515625,0)" xlink:href="#A"/><use transform="matrix(0.0126953125,0,0,0.0126953125,47.5947265625,0)" xlink:href="#J"/><use transform="matrix(0.0126953125,0,0,0.0126953125,63.1845703125,0)" xlink:href="#S"/><use transform="matrix(0.0126953125,0,0,0.0126953125,78.5458984375,0)" xlink:href="#W"/></g></defs></g></svg>