<svg xmlns="http://www.w3.org/2000/svg" xmlns:xlink="http://www.w3.org/1999/xlink" xmlns:lucid="lucid" width="1602" height="1202"><g transform="translate(440.5 -439.5)" lucid:page-tab-id="0_0"><path d="M-500 0h2000v2000H-500z" fill="#f2f3f5"/><path d="M179.03 760H960v800H179.03z" stroke="#8c4fff" stroke-width="3" fill="#fff" fill-opacity="0"/><path d="M179.03 760h56v56h-56v-56z" stroke="#fff" stroke-opacity="0" fill="#8c4fff"/><path d="M222.4 789.45l-4.12-1.77v14.68c3.57-.48 4.12-4.16 4.12-4.3v-8.6zm-5.53 12.95v-14.72l-4.23 1.77v8.68c0 .07.63 3.86 4.23 4.27zm.44-16.45c.2-.07.4-.07.55.04l5.53 2.34c.28.1.43.37.43.63v9.16c-.22 2.02-1.87 5.7-6.34 5.7-4.3 0-5.96-3.68-6.23-5.6v-9.26c0-.26.2-.52.43-.63l5.65-2.4zm7.92.92l-7.64-3.38-7.76 3.26v9.97c0 .07-.04 4 2.35 6.48 1.26 1.33 3.06 2 5.3 2 2.27 0 4.03-.67 5.36-2 2.43-2.46 2.4-6.43 2.4-6.47v-9.86zm-1.4 17.3c-1.57 1.6-3.7 2.42-6.36 2.42-2.62 0-4.74-.82-6.3-2.44-2.83-2.87-2.7-7.28-2.7-7.46v-10.42c0-.3.14-.55.42-.62l8.43-3.57c.2-.1.4-.1.55 0l8.35 3.67c.28.1.44.37.44.62v10.33c0 .2.03 4.56-2.83 7.43zm-29.4-10.23h11.2v1.4h-11.2c-3.93 0-6.75-2.84-6.98-7.03v-.5c0-3.54 1.84-5.93 5.33-7 0-.3-.04-.66-.04-.88 0-4.1 2.23-7.65 5.64-9.05 4.63-1.88 9.84-1.25 12.74 1.54 1.07 1.04 1.9 2.18 2.48 3.5.86-.62 1.96-.9 3.3-.84 2.5.1 4.42 2.4 4.82 5.6 2.07.18 3.5 1.25 4.2 3.23l-1.3.47c-.6-1.62-1.7-2.36-3.57-2.36-.35 0-.67-.24-.67-.65-.2-3.24-2-4.82-3.56-4.9-1.34-.06-2.32.3-2.9 1.1-.16.2-.4.3-.67.27-.24-.04-.47-.22-.55-.44-.6-1.55-1.4-2.83-2.55-3.94-2.5-2.43-7.13-2.94-11.25-1.25-2.86 1.17-4.74 4.2-4.74 7.72 0 .37.04.95.08 1.32.04.37-.16.7-.5.77-3.23.82-4.87 2.74-4.87 5.8v.4c.2 3.5 2.4 5.74 5.56 5.74z" stroke="#fff" stroke-opacity="0" fill="#fff"/><use xlink:href="#a" transform="matrix(1,0,0,1,250.03498847684892,780) translate(0 25.1875)"/><use xlink:href="#b" transform="matrix(1,0,0,1,250.03498847684892,780) translate(86.5185546875 25.1875)"/><use xlink:href="#c" transform="matrix(1,0,0,1,250.03498847684892,780) translate(168.4921875 25.1875)"/><use xlink:href="#d" transform="matrix(1,0,0,1,250.03498847684892,780) translate(243.8388671875 25.1875)"/><path d="M256.04 840H880v649.34H256.04z" stroke="#00a4a6" stroke-width="3" fill="#fff" fill-opacity="0"/><path d="M256.04 840h56v56h-56v-56z" stroke="#fff" stroke-opacity="0" fill="#00a4a6"/><path d="M299.42 862.18c-.16-.17-.35-.25-.56-.25h-5.15v-5.58c-.02-2.54-.96-4.7-2.83-6.4-1.9-1.84-4.15-2.75-6.77-2.75-2.65 0-4.9.83-6.8 2.62-1.9 1.7-2.87 3.87-2.9 6.4v5.66h-5.15c-.25 0-.44.1-.6.25-.15.17-.2.34-.2.6V888c0 .43.33.8.8.8h29.57c.47 0 .82-.37.82-.8v-25.28c0-.2-.07-.38-.22-.54zm-23.47-5.9c.04-2.13.82-3.88 2.38-5.3 1.62-1.5 3.52-2.2 5.74-2.2 2.2 0 4.12.75 5.7 2.25 1.54 1.4 2.3 3.2 2.3 5.32v5.58h-16.15zm22.1 30.94h-28.02v-23.7h28z" stroke="#fff" stroke-opacity="0" fill="#fff"/><path d="M283.23 877.3v6.25h1.6v-6.23c2.13-.4 3.63-2.2 3.64-4.35 0-2.43-1.98-4.4-4.42-4.43-2.2-.03-4.05 1.5-4.42 3.68-.4 2.4 1.2 4.68 3.6 5.1zm.82-7.15c.78 0 1.44.27 2 .83.55.55.82 1.2.8 2 .03 1.54-1.2 2.8-2.74 2.8h-.05c-1.56.13-2.92-1.04-3.03-2.6-.12-1.56 1.05-2.93 2.6-3.03.15-.02.28-.02.43 0z" stroke="#fff" stroke-opacity="0" fill="#fff"/><use xlink:href="#e" transform="matrix(1,0,0,1,327.0351979886864,860) translate(0 25.1875)"/><use xlink:href="#f" transform="matrix(1,0,0,1,327.0351979886864,860) translate(82.6591796875 25.1875)"/><path d="M120 665.46h1040V1640H120z" stroke="#242f3e" stroke-width="3" fill="#fff" fill-opacity="0"/><path d="M120 665.46h56v56h-56v-56z" stroke="#fff" stroke-opacity="0" fill="#242f3e"/><path d="M138.22 691.33c-.04.47.04.87.17 1.33.1.38.28.7.48 1.07.04.1.08.2.08.34 0 .2-.12.35-.28.45l-.95.62c-.12.08-.24.12-.37.12-.16 0-.33-.07-.45-.2-.2-.22-.36-.43-.52-.7-.17-.25-.3-.53-.45-.87-1.1 1.37-2.63 2.08-4.4 2.06-1.15.05-2.13-.3-2.96-1.1-.78-.77-1.14-1.74-1.1-2.84-.05-1.22.4-2.28 1.35-3.08 1.07-.84 2.3-1.22 3.66-1.15.57 0 1.02.02 1.6.1.57.1 1.1.2 1.72.33v-1.1c.08-.9-.16-1.67-.7-2.38-.74-.56-1.56-.78-2.46-.68-.53 0-1.03.05-1.6.18-.58.14-1.03.3-1.6.52l-.5.2h-.24c-.2 0-.33-.17-.33-.47v-.74c0-.2.04-.34.12-.5.12-.16.24-.26.4-.33.66-.3 1.2-.5 1.9-.68.77-.2 1.47-.3 2.3-.28 1.47-.13 2.78.27 3.9 1.2.94 1.05 1.35 2.3 1.22 3.68zm-6.07 2.27c.57 0 1.06-.08 1.6-.28.57-.2 1.03-.5 1.44-.95.23-.28.4-.58.48-.95.12-.45.16-.84.16-1.3v-.66c-.53-.1-.94-.17-1.44-.2H133c-.8-.1-1.55.1-2.2.58-.54.45-.8 1.04-.75 1.73-.04.6.13 1.15.54 1.6.44.36.97.5 1.55.43zm12 1.6c-.22.02-.42-.02-.6-.15-.15-.17-.23-.35-.32-.6l-3.5-11.5-.1-.62c0-.24.1-.37.36-.37h1.47c.2 0 .37.03.57.15.17.2.25.37.3.6l2.5 9.96 2.38-9.94c0-.24.08-.43.28-.6.17-.1.37-.15.58-.14h1.2c.24 0 .4.03.6.14.17.18.25.37.3.6l2.33 9.94 2.56-10c.04-.22.16-.4.33-.58.15-.12.36-.17.56-.14h1.4c.16-.02.33.1.37.3v.3s0 .2-.12.37l-3.6 11.53c-.05.23-.13.42-.3.6-.2.1-.36.15-.57.13h-1.27c-.25.03-.46-.02-.62-.15-.16-.16-.25-.36-.3-.58l-2.3-9.6-2.28 9.6c-.05.22-.13.42-.3.6-.2.12-.4.17-.6.14zm19.2.38c-.82 0-1.5-.07-2.3-.25-.65-.13-1.15-.3-1.72-.6-.2-.1-.37-.23-.45-.4-.08-.15-.12-.3-.12-.45v-.74c0-.3.12-.47.32-.47h.3l.36.16c.58.24 1.03.4 1.6.5.62.15 1.15.2 1.8.2.8.06 1.5-.1 2.2-.5.48-.3.77-.8.72-1.4.05-.4-.12-.75-.37-1.03-.46-.4-.95-.65-1.52-.8l-2.18-.68c-.94-.25-1.72-.73-2.38-1.5-.5-.65-.74-1.35-.74-2.18 0-.6.12-1.1.4-1.6.3-.5.63-.9 1.08-1.23.5-.37.98-.6 1.6-.76.66-.18 1.2-.27 1.9-.25.32-.04.6-.04.97 0l1 .14.8.24.67.25c.16.12.28.23.45.38.08.17.12.32.12.5v.7c0 .33-.12.48-.37.48-.2-.02-.37-.08-.57-.18-.95-.42-1.8-.6-2.88-.58-.7-.04-1.3.1-1.97.4-.5.3-.74.8-.7 1.36 0 .4.13.76.46 1.06.5.4.98.64 1.6.8l2.1.7c.94.23 1.68.7 2.3 1.42.48.63.7 1.3.7 2.1 0 .63-.13 1.16-.38 1.72-.3.55-.62.96-1.1 1.32-.5.4-1 .66-1.6.85-.75.24-1.4.33-2.15.35zM166.1 702.94c-5.6 3.8-11.36 5.57-18.15 5.55-8.54.04-15.82-2.74-22.16-8.45-.5-.42 0-1 .48-.68 7.07 4.06 14.03 5.9 22.2 5.9 6.1-.04 11.3-1.1 16.93-3.46.83-.34 1.52.55.7 1.14z" stroke="#fff" stroke-opacity="0" fill="#fff"/><path d="M168.16 700.65c-.64-.8-4.16-.38-5.75-.2-.46 0-.53-.35-.1-.66 2.8-1.98 7.42-1.42 8-.75.6.67-.14 5.3-2.78 7.5-.4.33-.78.14-.6-.3.54-1.52 1.86-4.83 1.24-5.6z" stroke="#fff" stroke-opacity="0" fill="#fff"/><use xlink:href="#g" transform="matrix(1,0,0,1,191,685.4545454545455) translate(0 25.1875)"/><use xlink:href="#h" transform="matrix(1,0,0,1,191,685.4545454545455) translate(107.5546875 25.1875)"/><path d="M360 920h120v120H360V920z" stroke="#000" stroke-opacity="0" fill="#ed7100"/><path d="M462.12 978.5h-17.1l8.43-8.4-2.14-2.1-11.55 11.58 11.56 11.6 2.15-2.1-7.6-7.57h16.27v-3zm-74.96-8.4l8.33 8.4h-15.94v3h15.1l-7.5 7.57 2.06 2.1 11.56-11.6L389.22 968l-2.06 2.1zm23.28 23.34h22.3V971h-22.3v22.44zm25.1-23.86h3.22v2.94h-3.06v4.46h3.06V980h-3.06v4.45h3.06v3.03h-3.06v4.45h3.06v3.02h-3.22c-.25.5-.75 1-1.33 1.26v3.2h-2.96v-2.94h-4.46v2.94h-2.97v-2.94h-4.45v2.94h-2.97v-2.94h-4.46v2.94h-2.97v-3.2c-.58-.24-1.07-.74-1.32-1.25h-3.22v-3.02h3.06v-4.45h-3.05v-3.03h3.06V980h-3.05v-3.02h3.06v-4.46h-3.05v-2.94h3.23c.25-.58.74-1.1 1.32-1.34v-3.2h2.97v3.03h4.46v-3.02h2.97v3.02h4.46v-3.02h2.98v3.02h4.46v-3.02h2.97v3.2c.6.24 1.1.75 1.34 1.33zm-13.2 46.7v-15.36h-3v15.37l-8-8-2.06 2.1 11.56 11.6 11.56-11.6-2.07-2.1-8 8zm-11-64.6l-2.06-2.1L420.84 938l11.56 11.6-2.07 2.1-8-8v16.73h-2.98V943.7l-8 8z" stroke="#000" stroke-opacity="0" fill="#fff"/><use xlink:href="#g" transform="matrix(1,0,0,1,329.99999999999994,1049) translate(10.984375 25.1875)"/><use xlink:href="#i" transform="matrix(1,0,0,1,329.99999999999994,1049) translate(118.5390625 25.1875)"/><use xlink:href="#j" transform="matrix(1,0,0,1,329.99999999999994,1049) translate(27.2216796875 62.938281249999996)"/><path d="M-433.88 1045.02c1.44-29.6 25.08-53.02 53.88-53.02 9.72 0 19.32 2.62 27.6 7.86 15.48 9.55 25.32 26.57 26.28 45.16h-107.76zm24.48-89.67c0-16.24 13.2-29.46 29.4-29.46s29.4 13.2 29.4 29.45c0 16.23-13.2 29.32-29.4 29.32s-29.4-13.1-29.4-29.32zm60.24 39.4c-5.28-3.27-10.92-5.5-16.8-6.94 12.6-5.5 21.36-17.92 21.36-32.45 0-19.5-15.84-35.35-35.4-35.35s-35.4 15.84-35.4 35.35c0 14.53 8.76 26.96 21.36 32.46-26.28 6.56-45.96 31.04-45.96 60.1 0 1.7 1.32 3 3 3h114c1.68 0 3-1.3 3-3 0-21.6-11.16-42.02-29.16-53.15z" stroke="#000" stroke-opacity="0" fill="#232f3e"/><use xlink:href="#k" transform="matrix(1,0,0,1,-470,1059.909090909091) translate(61.4912109375 25.1875)"/><path d="M360 1288.65h120v120H360v-120z" stroke="#000" stroke-opacity="0" fill="#c925d1"/><path d="M451.42 1374.23h3.02v-4.54h-3.02v4.53zm-4.46 0h2.94v-4.54h-2.94v4.53zm-4.53 0h3.02v-4.54h-3.02v4.53zm16.55 11.98h-36.2v-9.87l6.2-6.15 8.07 5.26c.42.33 1 .33 1.5.08.52-.24.85-.73.85-1.3v-7.53h19.58v19.5zm1.5-22.5h-22.6c-.83 0-1.5.64-1.5 1.53v6.16l-6.72-4.46c-.6-.4-1.43-.33-1.93.24l-7.48 7.45c-.33.32-.5.65-.5 1.05v12c0 .88.67 1.53 1.5 1.53h39.24c.83 0 1.5-.64 1.5-1.53v-22.44c0-.9-.67-1.53-1.5-1.53zm-78.36-40.5h-3.03v-13.45c0-.9.66-1.54 1.5-1.54h13.53v3h-9.9l11 10.94-2.1 2.1-11-10.93v9.9zm14.6 44.55l-11 10.93h9.92v3h-13.52c-.84 0-1.52-.65-1.52-1.46v-13.53h3.03v9.88l11-10.94 2.1 2.1zm40.08-45.6l11-10.94h-9.9v-3h13.52c.84 0 1.5.66 1.5 1.55v13.45h-3.02v-9.9l-11 10.95-2.1-2.1zm13.6 22.1c0-4.04-4.78-8.17-12.93-10.93l1-2.83c9.5 3.23 14.96 8.25 14.96 13.76 0 5.6-5.46 10.6-14.95 13.77l-1-2.84c8.14-2.68 12.93-6.8 12.93-10.94zm-72.4 0c0-5.34 5.12-10.2 14.1-13.44l1.02 2.85c-7.56 2.75-12.1 6.72-12.1 10.6 0 3.97 4.54 7.94 12.1 10.7l-1 2.75c-9-3.16-14.12-8.1-14.12-13.44zm38.05 16.45c-8.82 0-12.85-2.27-12.85-3v-3.72c3.2 1.62 8.32 2.26 12.94 2.26 4.53 0 9.57-.64 12.68-2.18v3.64c0 .73-3.95 3-12.77 3zm-12.85-15.72c3.2 1.63 8.32 2.2 12.94 2.2 4.53 0 9.57-.58 12.68-2.1v5.17c0 .8-3.86 3-12.68 3-9.08 0-12.94-2.35-12.94-3v-5.27zm0-9.07c3.1 1.55 8.06 2.28 12.85 2.28 4.7 0 9.66-.73 12.77-2.27v5.28c0 .9-3.86 3-12.68 3-9.08 0-12.94-2.27-12.94-3v-5.27zm12.85-6.7c8.07 0 12.6 2.1 12.77 3-.17.88-4.7 2.98-12.77 2.98-8.15 0-12.68-2.1-12.85-3 .17-.88 4.7-3 12.85-3zm15.8 28.5v-25.5c0-4.14-8.24-6-15.8-6-7.64 0-15.87 1.86-15.87 6v25.5c0 4.13 7.98 6 15.87 6 7.8 0 15.8-1.87 15.8-6z" stroke="#000" stroke-opacity="0" fill="#fff"/><use xlink:href="#g" transform="matrix(1,0,0,1,329.99999999999994,1417.6511627906975) translate(10.1337890625 25.1875)"/><use xlink:href="#l" transform="matrix(1,0,0,1,329.99999999999994,1417.6511627906975) translate(117.6884765625 25.1875)"/><path d="M421.48 1271.16h-2.96v-153.4h2.96zm0-218.16h-2.96v-11.5h2.96z" stroke="#3a414a" stroke-width=".05" fill="#3a414a"/><path d="M421.48 1041.54h-2.96V1040h2.96z" fill="#3a414a"/><path stroke="#3a414a" stroke-width=".05" fill="#3a414a"/><path d="M420 1285.65l-7.5-13h15z" fill="#3a414a"/><path d="M420 1288.6l-10.06-17.4h20.12zm-4.94-14.46l4.94 8.56 4.94-8.56z" stroke="#3a414a" stroke-width=".05" fill="#3a414a"/><path d="M1081.02 1285.42l58 8.62v5.1c0 7.53-26 13.63-58 13.63s-58-6.1-58-13.64v-5.53z" fill="#8c3123"/><path d="M1081.05 1322.13c24.2 0 44.94-3.54 53.58-8.5l2.88-4.78 1.16-4.4v5.45l-19 81c0 5.08-17.3 9.1-38.6 9.1-21.32 0-38.6-4.02-38.6-9.1l-19.02-81v-5.35l4.38 9.27c8.76 4.87 29.27 8.3 53.23 8.3z" fill="#8c3123"/><path d="M1081.04 1280c32 0 57.98 6.12 57.98 13.62 0 7.5-25.97 13.57-57.98 13.57-32 0-58-6.02-58-13.58 0-7.56 26-13.62 58-13.62z" fill="#e05243"/><path d="M1081.03 1316.6c29.85 0 54.4-5.2 57.62-12.06l-19 81c0 5.05-17.3 9.1-38.62 9.1-21.32 0-38.6-4.05-38.6-9.1l-19.02-81c3.23 6.85 27.78 12.07 57.63 12.07z" fill="#e05243"/><use xlink:href="#m" transform="matrix(1,0,0,1,1023.0349884768489,1400) translate(16.25146484375 25.1875)"/><path d="M652 920h120v120H652V920z" stroke="#000" stroke-opacity="0" fill="#ed7100"/><path d="M710.2 976.42c-.7.42-1.16 1.2-1.16 2.05v41.67l-31.5-17.63v-40.88l35.33-20.54 31.34 15.57-34 19.77zm37.68-19.77c0-.85-.46-1.7-1.3-2.14l-32.5-16.16c-.75-.43-1.67-.43-2.44 0l-35.85 20.8c-.77.42-1.23 1.28-1.23 2.13v41.58c0 .86.46 1.72 1.22 2.14l32.63 18.22c.3.25.77.34 1.15.34.46 0 .84-.1 1.22-.34.77-.43 1.23-1.2 1.23-2.06V978.8l34.62-20.1c.77-.42 1.23-1.2 1.23-2.05zm.07 45.95l-28.43 17.45v-15.57l14.83-9.67.07-.6c.08-.16.08-.16.08-1v-18.67l13.53-7.78-.08 35.85zm1.84-38.93c-.7-.5-1.7-.5-2.38 0l-14.37 8.3c-.46.25-1.53.77-1.53 1.96v19.17l-13.68 8.8c-.85.53-1.3 1.3-1.3 2.15V1021c0 .85.46 1.62 1.22 2.13.38.17.84.34 1.3.34.38 0 .84-.17 1.22-.34l29.5-18.05c.7-.43 1.15-1.28 1.15-2.14l.08-37.22c0-.85-.45-1.62-1.2-2.05z" stroke="#000" stroke-opacity="0" fill="#fff"/><use xlink:href="#n" transform="matrix(1,0,0,1,622.0106851037084,1049) translate(39.87890625 25.1875)"/><use xlink:href="#o" transform="matrix(1,0,0,1,622.0106851037084,1049) translate(50.0478515625 62.938281249999996)"/><use xlink:href="#p" transform="matrix(1,0,0,1,622.0106851037084,1049) translate(30.10986328125 100.68906249999999)"/><use xlink:href="#q" transform="matrix(1,0,0,1,622.0106851037084,1049) translate(39.60595703125 138.43984375)"/><use xlink:href="#r" transform="matrix(1,0,0,1,622.0106851037084,1049) translate(1.06298828125 176.19062499999998)"/><use xlink:href="#s" transform="matrix(1,0,0,1,622.0106851037084,1049) translate(118.10107421875 176.19062499999998)"/><path d="M652 1288.65h120v120H652v-120z" stroke="#000" stroke-opacity="0" fill="#ed7100"/><path d="M746.46 1364.2l-10.7-6.25c1.1-2.86 1.7-5.98 1.7-9.26 0-12.14-8.3-22.25-19.53-24.95v-12.9l28.53 17.37v35.97zM712 1387.6l-34.43-19.96v-39.5l28.52-17.28v12.9c-11.24 2.7-19.55 12.8-19.55 24.93 0 14.14 11.38 25.6 25.46 25.6 6.9 0 13.12-2.7 17.68-7.16l8.7 5.13L712 1387.6zm13.5-40.43c-.3-7.33-1.73-14.32-3.9-18.95 7.18 3.45 12.28 10.53 12.8 18.95h-8.9zm.06 2.95h8.84c-.52 8.26-5.4 15.25-12.36 18.8 2.4-5.15 3.45-11.98 3.52-18.8zm-12.05 0h9c.07 7.83-1.35 15.67-4.87 20.47-1.35.33-2.7.5-4.12.58v-21.06zm-7.03 20.47c-3.14-3.97-4.64-12.06-4.72-20.48h8.76v21.06c-1.4-.1-2.76-.25-4.03-.6zm-7.8-20.48c.1 7.08 1.2 13.98 3.38 18.8-6.96-3.47-11.9-10.55-12.43-18.8h9.06zm.1-2.95h-9.15c.53-8.5 5.7-15.67 13.03-19.04-2.32 4.97-3.67 11.96-3.9 19.04zm11.74 0h-8.67c.3-8.26 2.02-16.26 5.1-20.55 1.2-.26 2.4-.42 3.58-.5v21.05zm3-21.06c1.28.1 2.48.26 3.68.6 2.62 3.12 4.8 11.46 5.24 20.47h-8.9v-21.06zm35.2 0l-31.52-19.2c-.45-.33-1.05-.33-1.5-.08-.45.25-.75.76-.75 1.35v15.08c-.97-.17-1.95-.26-2.92-.26-.96 0-1.94.08-2.9.25v-15.08c0-.6-.3-1.1-.76-1.35-.45-.25-1.05-.25-1.5.08l-31.52 19.13c-.45.25-.75.76-.75 1.26v41.18c0 .6.3 1.1.75 1.35l35.94 20.9c.23.08.45.16.75.16.24 0 .53-.1.76-.18l29.35-17.1c.46-.25.76-.76.76-1.26 0-.6-.3-1.1-.75-1.35l-10.32-6.14c1.05-1.26 1.95-2.7 2.7-4.13l12.72 7.42c.23.08.45.16.75.16.23.02.53-.07.75-.15.45-.34.75-.85.75-1.35v-39.43c0-.5-.3-1-.75-1.26z" stroke="#000" stroke-opacity="0" fill="#fff"/><use xlink:href="#g" transform="matrix(1,0,0,1,622.0106851037084,1417.6511627906975) translate(10.57177734375 25.1875)"/><use xlink:href="#t" transform="matrix(1,0,0,1,622.0106851037084,1417.6511627906975) translate(118.12646484375 25.1875)"/><path d="M713.5 1271.16h-2.96V1231h2.95zm0-218.16h-2.96v-11.5h2.95z" stroke="#3a414a" stroke-width=".05" fill="#3a414a"/><path d="M713.5 1041.54h-2.96V1040h2.95z" fill="#3a414a"/><path stroke="#3a414a" stroke-width=".05" fill="#3a414a"/><path d="M712 1285.65l-7.5-13h15z" fill="#3a414a"/><path d="M712 1288.6l-10.04-17.4h20.1zm-4.93-14.46l4.94 8.56 4.96-8.56z" stroke="#3a414a" stroke-width=".05" fill="#3a414a"/><path d="M773.5 1348.66l241.86 1.25" stroke="#3a414a" stroke-width="3" stroke-linejoin="round" fill="none"/><path d="M773.56 1347.18v2.95H772v-2.95z" stroke="#3a414a" stroke-width=".05" fill="#3a414a"/><path d="M1029.85 1349.98l-13.03 7.44.08-15z" stroke="#3a414a" stroke-width="3" fill="#3a414a"/><path d="M-160 911.46a6 6 0 0 1 6-6H-6a6 6 0 0 1 6 6v148a6 6 0 0 1-6 6h-148a6 6 0 0 1-6-6z" stroke="#000" stroke-width="2" fill="#fff"/><use xlink:href="#u" transform="matrix(1,0,0,1,-154.99999999999997,910.4545454545455) translate(36.279296875 86.125)"/><path d="M-149.28 1126a6 6 0 0 1 6-6h126.56a6 6 0 0 1 6 6v29.47a6 6 0 0 1-6 6h-126.56a6 6 0 0 1-6-6z" fill="none"/><use xlink:href="#v" transform="matrix(1,0,0,1,-144.28136718749997,1125) translate(0 25.4580078125)"/><path d="M-318.5 985.46h140" stroke="#3a414a" stroke-width="3" stroke-linejoin="round" fill="none"/><path d="M-318.46 986.93H-323v-2.95h4.54z" stroke="#3a414a" stroke-width=".05" fill="#3a414a"/><path d="M-164 985.46l-13 7.5v-15z" stroke="#3a414a" stroke-width="3" fill="#3a414a"/><path d="M2.5 985.43l340-5.16" stroke="#3a414a" stroke-width="3" stroke-linejoin="round" fill="none"/><path d="M2.57 986.9l-1.57.03v-2.95l1.52-.02z" stroke="#3a414a" stroke-width=".05" fill="#3a414a"/><path d="M357 980.05l-12.88 7.7-.22-15z" stroke="#3a414a" stroke-width="3" fill="#3a414a"/><path d="M358.5 980.02l-340 5.17" stroke="#3a414a" stroke-width="3" stroke-linejoin="round" fill="none"/><path d="M360 981.48l-1.52.02-.05-2.95 1.57-.02z" stroke="#3a414a" stroke-width=".05" fill="#3a414a"/><path d="M4 985.4l12.88-7.7.22 15z" stroke="#3a414a" stroke-width="3" fill="#3a414a"/><path d="M421.48 1287.15h-2.96v-169.4h2.96z" stroke="#3a414a" stroke-width=".05" fill="#3a414a"/><path d="M421.48 1288.65h-2.96v-1.54h2.96z" fill="#3a414a"/><path stroke="#3a414a" stroke-width=".05" fill="#3a414a"/><path d="M425.77 1053h-11.54l5.77-10z" fill="#3a414a"/><path d="M427.48 1053h-3.4l-4.08-7.05-4.07 7.05h-3.4l7.47-12.95z" stroke="#3a414a" stroke-width=".05" fill="#3a414a"/><path d="M481.5 980h153.02" stroke="#3a414a" stroke-width="3" stroke-linejoin="round" fill="none"/><path d="M481.54 981.48H480v-2.96h1.54z" stroke="#3a414a" stroke-width=".05" fill="#3a414a"/><path d="M649 980l-12.98 7.5v-15z" stroke="#3a414a" stroke-width="3" fill="#3a414a"/><path d="M452.83 554.6c-4.56 0-8.2-3.72-8.2-8.28 0-4.44 3.64-8.16 8.2-8.16 4.56 0 8.18 3.72 8.18 8.16 0 4.56-3.6 8.28-8.17 8.28m-65.66-92.76c-4.56 0-8.18-3.72-8.18-8.16 0-4.56 3.6-8.28 8.17-8.28 4.56 0 8.2 3.72 8.2 8.28 0 4.44-3.64 8.16-8.2 8.16m65.66 30c4.56 0 8.18 3.6 8.18 8.16 0 4.56-3.6 8.16-8.17 8.16-4.56 0-8.2-3.6-8.2-8.16 0-4.56 3.64-8.16 8.2-8.16m0 40.92c-6.6 0-12.1 4.68-13.4 10.92H425.5c-1.87 0-2.8-.96-2.8-2.64v-38.28h16.74c1.3 6.24 6.8 10.92 13.4 10.92 7.52 0 13.66-6.12 13.66-13.68s-6.14-13.68-13.67-13.68c-6.6 0-12.1 4.8-13.4 10.92H422.7v-38.28c0-4.8-3.35-8.04-8.2-8.04h-13.94c-1.3-6.24-6.8-10.92-13.4-10.92-7.52 0-13.66 6.12-13.66 13.68 0 7.44 6.14 13.56 13.67 13.56 6.6 0 12.1-4.68 13.4-10.92h13.94c1.87 0 2.8.84 2.8 2.64v82.08c0 4.8 3.35 8.04 8.2 8.04h13.94c1.3 6.24 6.8 10.92 13.4 10.92 7.52 0 13.66-6.12 13.66-13.68 0-7.44-6.14-13.56-13.67-13.56" stroke="#000" stroke-opacity="0" fill="#232f3e"/><g><use xlink:href="#w" transform="matrix(1,0,0,1,343.49999999999994,569) translate(36.0654296875 25.1875)"/><use xlink:href="#x" transform="matrix(1,0,0,1,343.49999999999994,569) translate(30.365234375 62.938281249999996)"/></g><path d="M421.48 902.5h-2.96V633.76h2.96zm0-330.5h-2.96v-10.5h2.96z" stroke="#3a414a" stroke-width=".05" fill="#3a414a"/><path d="M421.48 561.54h-2.96V557h2.96z" fill="#3a414a"/><path stroke="#3a414a" stroke-width=".05" fill="#3a414a"/><path d="M420 917l-7.5-13h15z" fill="#3a414a"/><path d="M420 919.95l-10.06-17.42h20.12zm-4.94-14.47l4.94 8.57 4.94-8.56z" stroke="#3a414a" stroke-width=".05" fill="#3a414a"/><defs><path d="M600 0L52-1490h200c166 485 304 806 458 1336 156-533 285-846 449-1336h202L819 0H600" id="y"/><path d="M158 0v-1118h180V0H158zm91-1301c-68 0-125-53-125-119s57-119 125-119c69 0 126 53 126 119s-57 119-126 119" id="z"/><path d="M158 0v-1118h174v172h12c41-113 157-188 290-188 26 0 70 2 91 3v181c-11-2-60-10-108-10-161 0-279 109-279 260V0H158" id="A"/><path d="M598-1118v154H368v674c0 100 37 144 132 144 23 0 62-6 92-12L629-6c-37 13-88 20-134 20-193 0-307-107-307-290v-688H20v-154h168v-266h180v266h230" id="B"/><path d="M537 14c-226 0-379-139-379-422v-710h180v695c0 172 97 275 253 275 160 0 281-109 281-300v-670h181V0H879v-209C806-46 684 14 537 14" id="C"/><path d="M471 26C259 26 90-98 90-318c0-256 228-303 435-329 202-27 287-16 287-108 0-139-79-219-234-219-161 0-248 86-283 164l-173-57c86-203 278-265 451-265 150 0 419 46 419 395V0H815v-152h-12C765-73 660 26 471 26zm31-159c199 0 310-134 310-271v-155c-30 35-226 55-295 64-131 17-246 59-246 186 0 116 97 176 231 176" id="D"/><path d="M338-1490V0H158v-1490h180" id="E"/><g id="a"><use transform="matrix(0.0126953125,0,0,0.0126953125,0,0)" xlink:href="#y"/><use transform="matrix(0.0126953125,0,0,0.0126953125,17.9384765625,0)" xlink:href="#z"/><use transform="matrix(0.0126953125,0,0,0.0126953125,24.2353515625,0)" xlink:href="#A"/><use transform="matrix(0.0126953125,0,0,0.0126953125,34.4296875,0)" xlink:href="#B"/><use transform="matrix(0.0126953125,0,0,0.0126953125,42.935546875,0)" xlink:href="#C"/><use transform="matrix(0.0126953125,0,0,0.0126953125,58.3095703125,0)" xlink:href="#D"/><use transform="matrix(0.0126953125,0,0,0.0126953125,72.9091796875,0)" xlink:href="#E"/></g><path d="M158 418v-1536h174v179h20c37-59 106-193 324-193 279 0 474 222 474 576 0 356-194 580-473 580-213 0-288-135-325-197h-14v591H158zm492-555c209 0 317-186 317-421 0-232-105-413-317-413-206 0-314 166-314 413 0 249 111 421 314 421" id="F"/><path d="M677 24c-213 0-288-135-325-197h-20V0H158v-1490h180v551h14c37-59 106-193 324-193 279 0 474 222 474 576 0 356-194 580-473 580zm-27-161c209 0 317-186 317-421 0-232-105-413-317-413-206 0-314 166-314 413 0 249 111 421 314 421" id="G"/><path d="M613 24c-304 0-509-231-509-576 0-350 205-580 509-580 216 0 392 114 453 309l-173 49c-33-115-133-197-280-197-223 0-326 196-326 419 0 220 103 415 326 415 150 0 252-85 285-206l172 49C1010-95 832 24 613 24" id="H"/><g id="b"><use transform="matrix(0.0126953125,0,0,0.0126953125,0,0)" xlink:href="#F"/><use transform="matrix(0.0126953125,0,0,0.0126953125,15.919921875,0)" xlink:href="#C"/><use transform="matrix(0.0126953125,0,0,0.0126953125,31.2939453125,0)" xlink:href="#G"/><use transform="matrix(0.0126953125,0,0,0.0126953125,47.2138671875,0)" xlink:href="#E"/><use transform="matrix(0.0126953125,0,0,0.0126953125,53.5107421875,0)" xlink:href="#z"/><use transform="matrix(0.0126953125,0,0,0.0126953125,59.8076171875,0)" xlink:href="#H"/></g><path d="M613 24c-304 0-509-231-509-576 0-350 205-580 509-580 305 0 511 230 511 580 0 345-206 576-511 576zm0-161c226 0 329-195 329-415 0-222-103-419-329-419-223 0-326 196-326 419 0 220 103 415 326 415" id="I"/><path d="M577 24c-279 0-473-224-473-580 0-354 195-576 474-576 218 0 287 134 324 193h14v-551h180V0H922v-173h-20C865-111 790 24 577 24zm27-161c203 0 314-172 314-421 0-247-108-413-314-413-212 0-317 181-317 413 0 235 108 421 317 421" id="J"/><g id="c"><use transform="matrix(0.0126953125,0,0,0.0126953125,0,0)" xlink:href="#H"/><use transform="matrix(0.0126953125,0,0,0.0126953125,14.853515625,0)" xlink:href="#E"/><use transform="matrix(0.0126953125,0,0,0.0126953125,21.150390625,0)" xlink:href="#I"/><use transform="matrix(0.0126953125,0,0,0.0126953125,36.740234375,0)" xlink:href="#C"/><use transform="matrix(0.0126953125,0,0,0.0126953125,52.1142578125,0)" xlink:href="#J"/></g><path d="M218-607c0-325 108-727 258-974h175c-155 315-250 682-250 974 0 265 78 531 250 886H476C306-10 218-315 218-607" id="K"/><path d="M180 0v-1490h510c348 0 508 209 508 474 0 266-160 477-507 477H370V0H180zm190-706h312c236 0 327-133 327-310 0-176-91-307-329-307H370v617" id="L"/><path d="M783 20c-382 0-661-292-661-764 0-473 279-766 661-766 302 0 548 182 601 489h-190c-42-204-217-313-411-313-268 0-476 208-476 590 0 381 209 588 476 588 195 0 369-110 411-313h190c-52 303-296 489-601 489" id="M"/><path d="M96 279C273-86 346-350 346-607c0-292-95-659-250-974h175c150 246 258 650 258 974 0 297-91 602-258 886H96" id="N"/><g id="d"><use transform="matrix(0.0126953125,0,0,0.0126953125,0,0)" xlink:href="#K"/><use transform="matrix(0.0126953125,0,0,0.0126953125,9.4833984375,0)" xlink:href="#y"/><use transform="matrix(0.0126953125,0,0,0.0126953125,27.421875,0)" xlink:href="#L"/><use transform="matrix(0.0126953125,0,0,0.0126953125,44.02734375,0)" xlink:href="#M"/><use transform="matrix(0.0126953125,0,0,0.0126953125,63.01953125,0)" xlink:href="#N"/></g><g id="e"><use transform="matrix(0.0126953125,0,0,0.0126953125,0,0)" xlink:href="#L"/><use transform="matrix(0.0126953125,0,0,0.0126953125,16.60546875,0)" xlink:href="#C"/><use transform="matrix(0.0126953125,0,0,0.0126953125,31.9794921875,0)" xlink:href="#G"/><use transform="matrix(0.0126953125,0,0,0.0126953125,47.8994140625,0)" xlink:href="#E"/><use transform="matrix(0.0126953125,0,0,0.0126953125,54.1962890625,0)" xlink:href="#z"/><use transform="matrix(0.0126953125,0,0,0.0126953125,60.4931640625,0)" xlink:href="#H"/></g><path d="M538 24C308 24 148-78 108-271l171-41c32 123 123 178 257 178 156 0 256-77 256-169 0-77-54-128-164-154l-186-44c-203-48-300-148-300-305 0-192 176-326 414-326 230 0 351 112 402 269l-163 42c-31-80-94-158-238-158-133 0-233 69-233 162 0 83 57 129 188 160l169 40c203 48 298 149 298 302 0 196-179 339-441 339" id="O"/><path d="M338-670V0H158v-1118h173l1 207c72-158 192-221 342-221 226 0 378 139 378 422V0H872v-695c0-172-96-275-252-275-161 0-282 109-282 300" id="P"/><path d="M628 24c-324 0-524-230-524-574 0-343 198-582 503-582 237 0 487 146 487 559v75H286c9 234 145 362 343 362 132 0 231-58 273-172l174 48C1024-91 857 24 628 24zM287-650h624c-17-190-120-322-304-322-192 0-309 151-320 322" id="Q"/><g id="f"><use transform="matrix(0.0126953125,0,0,0.0126953125,0,0)" xlink:href="#O"/><use transform="matrix(0.0126953125,0,0,0.0126953125,13.7236328125,0)" xlink:href="#C"/><use transform="matrix(0.0126953125,0,0,0.0126953125,29.09765625,0)" xlink:href="#G"/><use transform="matrix(0.0126953125,0,0,0.0126953125,45.017578125,0)" xlink:href="#P"/><use transform="matrix(0.0126953125,0,0,0.0126953125,60.37890625,0)" xlink:href="#Q"/><use transform="matrix(0.0126953125,0,0,0.0126953125,75.537109375,0)" xlink:href="#B"/></g><path d="M52 0l541-1490h220L1361 0h-200l-149-416H398L254 0H52zm404-582h497c-103-290-145-390-251-756-108 377-145 460-246 756" id="R"/><path d="M158 0v-1118h175l1 205c55-151 181-225 313-225 147 0 245 90 285 228 53-141 190-228 352-228 194 0 352 125 352 384V0h-181v-749c0-161-105-225-225-225-151 0-243 103-243 244V0H807v-767c0-124-93-207-219-207-131 0-250 92-250 270V0H158" id="S"/><path d="M126 0v-134l627-806v-11H146v-167h839v143L376-178v11h629V0H126" id="T"/><g id="g"><use transform="matrix(0.0126953125,0,0,0.0126953125,0,0)" xlink:href="#R"/><use transform="matrix(0.0126953125,0,0,0.0126953125,17.9384765625,0)" xlink:href="#S"/><use transform="matrix(0.0126953125,0,0,0.0126953125,40.7138671875,0)" xlink:href="#D"/><use transform="matrix(0.0126953125,0,0,0.0126953125,55.3134765625,0)" xlink:href="#T"/><use transform="matrix(0.0126953125,0,0,0.0126953125,69.291015625,0)" xlink:href="#I"/><use transform="matrix(0.0126953125,0,0,0.0126953125,84.880859375,0)" xlink:href="#P"/></g><g id="h"><use transform="matrix(0.0126953125,0,0,0.0126953125,0,0)" xlink:href="#M"/><use transform="matrix(0.0126953125,0,0,0.0126953125,18.9921875,0)" xlink:href="#E"/><use transform="matrix(0.0126953125,0,0,0.0126953125,25.2890625,0)" xlink:href="#I"/><use transform="matrix(0.0126953125,0,0,0.0126953125,40.87890625,0)" xlink:href="#C"/><use transform="matrix(0.0126953125,0,0,0.0126953125,56.2529296875,0)" xlink:href="#J"/></g><path d="M180 0v-1490h908v168H370v486h669v168H370v500h727V0H180" id="U"/><path d="M154 0v-137l495-537c165-179 249-281 249-418 0-156-121-253-280-253-170 0-278 110-278 278H158c0-264 200-443 465-443 266 0 455 183 455 416 0 161-73 288-336 568L416-179v12h687V0H154" id="V"/><g id="i"><use transform="matrix(0.0126953125,0,0,0.0126953125,0,0)" xlink:href="#U"/><use transform="matrix(0.0126953125,0,0,0.0126953125,15.6279296875,0)" xlink:href="#M"/><use transform="matrix(0.0126953125,0,0,0.0126953125,34.6201171875,0)" xlink:href="#V"/></g><path d="M180 0v-1490h528c311 0 458 177 458 395 0 191-114 278-244 313v14c139 9 302 137 302 371 0 225-148 397-499 397H180zm190-168h350c232 0 321-102 321-231 0-149-120-277-311-277H370v508zm0-668h328c160 0 286-101 286-255 0-129-87-231-280-231H370v486" id="W"/><path d="M158 0v-1490h180v865h22l478-493h223L593-638 1096 0H865L456-523 338-412V0H158" id="X"/><g id="j"><use transform="matrix(0.0126953125,0,0,0.0126953125,0,0)" xlink:href="#K"/><use transform="matrix(0.0126953125,0,0,0.0126953125,9.4833984375,0)" xlink:href="#W"/><use transform="matrix(0.0126953125,0,0,0.0126953125,26.4951171875,0)" xlink:href="#D"/><use transform="matrix(0.0126953125,0,0,0.0126953125,41.0947265625,0)" xlink:href="#H"/><use transform="matrix(0.0126953125,0,0,0.0126953125,55.9482421875,0)" xlink:href="#X"/><use transform="matrix(0.0126953125,0,0,0.0126953125,69.6337890625,0)" xlink:href="#Q"/><use transform="matrix(0.0126953125,0,0,0.0126953125,84.7919921875,0)" xlink:href="#P"/><use transform="matrix(0.0126953125,0,0,0.0126953125,100.1533203125,0)" xlink:href="#J"/><use transform="matrix(0.0126953125,0,0,0.0126953125,116.0732421875,0)" xlink:href="#N"/></g><path d="M763 24c-353 0-583-224-583-531v-983h190v968c0 214 149 370 393 370 243 0 391-156 391-370v-968h190v983c0 307-230 531-581 531" id="Y"/><g id="k"><use transform="matrix(0.0126953125,0,0,0.0126953125,0,0)" xlink:href="#Y"/><use transform="matrix(0.0126953125,0,0,0.0126953125,19.34765625,0)" xlink:href="#O"/><use transform="matrix(0.0126953125,0,0,0.0126953125,33.0712890625,0)" xlink:href="#Q"/><use transform="matrix(0.0126953125,0,0,0.0126953125,48.2294921875,0)" xlink:href="#A"/></g><path d="M180 0v-1490h510c348 0 508 194 508 460 0 198-88 351-276 417L1256 0h-220L726-579c-117 2-238 0-356 1V0H180zm190-747h312c235 0 327-108 327-283 0-177-92-293-329-293H370v576" id="Z"/><path d="M645 0H180v-1490h484c435 0 692 280 692 742 0 466-257 748-711 748zM370-168h263c363 0 539-218 539-580 0-358-176-574-521-574H370v1154" id="aa"/><path d="M657 26c-323 0-524-166-541-416h195c15 169 171 246 346 246 202 0 356-106 356-265 5-203-294-238-475-293-239-73-380-191-380-389 0-252 224-419 512-419 294 0 499 171 508 396H992c-17-145-151-228-328-228-193 0-321 102-321 242 0 156 175 211 284 241l149 41c160 44 422 134 422 412 0 244-197 432-541 432" id="ab"/><g id="l"><use transform="matrix(0.0126953125,0,0,0.0126953125,0,0)" xlink:href="#Z"/><use transform="matrix(0.0126953125,0,0,0.0126953125,16.732421875,0)" xlink:href="#aa"/><use transform="matrix(0.0126953125,0,0,0.0126953125,35.49609375,0)" xlink:href="#ab"/></g><g id="m"><use transform="matrix(0.0126953125,0,0,0.0126953125,0,0)" xlink:href="#G"/><use transform="matrix(0.0126953125,0,0,0.0126953125,15.919921875,0)" xlink:href="#C"/><use transform="matrix(0.0126953125,0,0,0.0126953125,31.2939453125,0)" xlink:href="#H"/><use transform="matrix(0.0126953125,0,0,0.0126953125,46.1474609375,0)" xlink:href="#X"/><use transform="matrix(0.0126953125,0,0,0.0126953125,59.8330078125,0)" xlink:href="#Q"/><use transform="matrix(0.0126953125,0,0,0.0126953125,74.9912109375,0)" xlink:href="#B"/></g><g id="n"><use transform="matrix(0.0126953125,0,0,0.0126953125,0,0)" xlink:href="#R"/><use transform="matrix(0.0126953125,0,0,0.0126953125,17.9384765625,0)" xlink:href="#S"/><use transform="matrix(0.0126953125,0,0,0.0126953125,40.7138671875,0)" xlink:href="#D"/><use transform="matrix(0.0126953125,0,0,0.0126953125,55.3134765625,0)" xlink:href="#T"/><use transform="matrix(0.0126953125,0,0,0.0126953125,69.291015625,0)" xlink:href="#I"/><use transform="matrix(0.0126953125,0,0,0.0126953125,84.880859375,0)" xlink:href="#P"/></g><g id="o"><use transform="matrix(0.0126953125,0,0,0.0126953125,0,0)" xlink:href="#U"/><use transform="matrix(0.0126953125,0,0,0.0126953125,15.6279296875,0)" xlink:href="#E"/><use transform="matrix(0.0126953125,0,0,0.0126953125,21.9248046875,0)" xlink:href="#D"/><use transform="matrix(0.0126953125,0,0,0.0126953125,36.5244140625,0)" xlink:href="#O"/><use transform="matrix(0.0126953125,0,0,0.0126953125,50.248046875,0)" xlink:href="#B"/><use transform="matrix(0.0126953125,0,0,0.0126953125,58.75390625,0)" xlink:href="#z"/><use transform="matrix(0.0126953125,0,0,0.0126953125,65.05078125,0)" xlink:href="#H"/></g><g id="p"><use transform="matrix(0.0126953125,0,0,0.0126953125,0,0)" xlink:href="#M"/><use transform="matrix(0.0126953125,0,0,0.0126953125,18.9921875,0)" xlink:href="#I"/><use transform="matrix(0.0126953125,0,0,0.0126953125,34.58203125,0)" xlink:href="#P"/><use transform="matrix(0.0126953125,0,0,0.0126953125,49.943359375,0)" xlink:href="#B"/><use transform="matrix(0.0126953125,0,0,0.0126953125,58.576171875,0)" xlink:href="#D"/><use transform="matrix(0.0126953125,0,0,0.0126953125,73.17578125,0)" xlink:href="#z"/><use transform="matrix(0.0126953125,0,0,0.0126953125,79.47265625,0)" xlink:href="#P"/><use transform="matrix(0.0126953125,0,0,0.0126953125,94.833984375,0)" xlink:href="#Q"/><use transform="matrix(0.0126953125,0,0,0.0126953125,109.9921875,0)" xlink:href="#A"/></g><path d="M611 442c-248 0-391-105-460-228l146-94c47 65 117 165 314 165 178 0 307-82 307-266v-224h-17C863-141 792-18 576-18c-268 0-472-195-472-546 0-346 197-568 476-568 216 0 288 133 326 193h17v-179h175V29c0 289-215 413-487 413zm-5-620c203 0 314-146 314-390 0-237-108-403-314-403-213 0-319 180-319 403 0 230 109 390 319 390" id="ac"/><path d="M140 405l46-156c120 36 205 19 263-150l32-93L54-1118h197c107 313 237 620 324 950 87-331 219-637 326-950h196L606 167c-68 178-176 259-334 259-64 0-113-12-132-21" id="ad"/><g id="q"><use transform="matrix(0.0126953125,0,0,0.0126953125,0,0)" xlink:href="#Z"/><use transform="matrix(0.0126953125,0,0,0.0126953125,16.3515625,0)" xlink:href="#Q"/><use transform="matrix(0.0126953125,0,0,0.0126953125,31.509765625,0)" xlink:href="#ac"/><use transform="matrix(0.0126953125,0,0,0.0126953125,47.455078125,0)" xlink:href="#z"/><use transform="matrix(0.0126953125,0,0,0.0126953125,53.751953125,0)" xlink:href="#O"/><use transform="matrix(0.0126953125,0,0,0.0126953125,67.4755859375,0)" xlink:href="#B"/><use transform="matrix(0.0126953125,0,0,0.0126953125,75.9814453125,0)" xlink:href="#A"/><use transform="matrix(0.0126953125,0,0,0.0126953125,86.17578125,0)" xlink:href="#ad"/></g><g id="r"><use transform="matrix(0.0126953125,0,0,0.0126953125,0,0)" xlink:href="#K"/><use transform="matrix(0.0126953125,0,0,0.0126953125,9.4833984375,0)" xlink:href="#R"/><use transform="matrix(0.0126953125,0,0,0.0126953125,27.421875,0)" xlink:href="#S"/><use transform="matrix(0.0126953125,0,0,0.0126953125,50.197265625,0)" xlink:href="#D"/><use transform="matrix(0.0126953125,0,0,0.0126953125,64.796875,0)" xlink:href="#T"/><use transform="matrix(0.0126953125,0,0,0.0126953125,78.7744140625,0)" xlink:href="#I"/><use transform="matrix(0.0126953125,0,0,0.0126953125,94.3642578125,0)" xlink:href="#P"/></g><g id="s"><use transform="matrix(0.0126953125,0,0,0.0126953125,0,0)" xlink:href="#U"/><use transform="matrix(0.0126953125,0,0,0.0126953125,15.6279296875,0)" xlink:href="#M"/><use transform="matrix(0.0126953125,0,0,0.0126953125,34.6201171875,0)" xlink:href="#Z"/><use transform="matrix(0.0126953125,0,0,0.0126953125,51.3525390625,0)" xlink:href="#N"/></g><g id="t"><use transform="matrix(0.0126953125,0,0,0.0126953125,0,0)" xlink:href="#U"/><use transform="matrix(0.0126953125,0,0,0.0126953125,15.6279296875,0)" xlink:href="#M"/><use transform="matrix(0.0126953125,0,0,0.0126953125,34.6201171875,0)" xlink:href="#ab"/></g><g id="u"><use transform="matrix(0.0126953125,0,0,0.0126953125,0,0)" xlink:href="#y"/><use transform="matrix(0.0126953125,0,0,0.0126953125,16.6181640625,0)" xlink:href="#Q"/><use transform="matrix(0.0126953125,0,0,0.0126953125,31.7763671875,0)" xlink:href="#A"/><use transform="matrix(0.0126953125,0,0,0.0126953125,41.1328125,0)" xlink:href="#H"/><use transform="matrix(0.0126953125,0,0,0.0126953125,55.986328125,0)" xlink:href="#Q"/><use transform="matrix(0.0126953125,0,0,0.0126953125,71.14453125,0)" xlink:href="#E"/></g><path d="M180 0v-1490h901v168H370v510h643v168H370V0H180" id="ae"/><g id="v"><use transform="matrix(0.0126953125,0,0,0.0126953125,0,0)" xlink:href="#K"/><use transform="matrix(0.0126953125,0,0,0.0126953125,9.4833984375,0)" xlink:href="#ae"/><use transform="matrix(0.0126953125,0,0,0.0126953125,24.0703125,0)" xlink:href="#A"/><use transform="matrix(0.0126953125,0,0,0.0126953125,33.4267578125,0)" xlink:href="#I"/><use transform="matrix(0.0126953125,0,0,0.0126953125,49.0166015625,0)" xlink:href="#P"/><use transform="matrix(0.0126953125,0,0,0.0126953125,64.3779296875,0)" xlink:href="#B"/><use transform="matrix(0.0126953125,0,0,0.0126953125,72.6298828125,0)" xlink:href="#Q"/><use transform="matrix(0.0126953125,0,0,0.0126953125,87.7880859375,0)" xlink:href="#P"/><use transform="matrix(0.0126953125,0,0,0.0126953125,103.1494140625,0)" xlink:href="#J"/><use transform="matrix(0.0126953125,0,0,0.0126953125,119.0693359375,0)" xlink:href="#N"/></g><path d="M789 20c-398 0-667-293-667-764 0-473 273-766 655-766 315 0 558 198 612 487h-196c-61-191-204-311-415-311-262 0-471 207-471 590 0 380 208 588 482 588 249 0 420-165 425-427H828v-166h572v163c0 370-256 606-611 606" id="af"/><path d="M338-670V0H158v-1490h180v566c73-149 190-208 336-208 226 0 379 139 379 422V0H872v-695c0-172-96-275-252-275-161 0-282 109-282 300" id="ag"/><g id="w"><use transform="matrix(0.0126953125,0,0,0.0126953125,0,0)" xlink:href="#af"/><use transform="matrix(0.0126953125,0,0,0.0126953125,19.3984375,0)" xlink:href="#z"/><use transform="matrix(0.0126953125,0,0,0.0126953125,25.6953125,0)" xlink:href="#B"/><use transform="matrix(0.0126953125,0,0,0.0126953125,34.201171875,0)" xlink:href="#ag"/><use transform="matrix(0.0126953125,0,0,0.0126953125,49.5751953125,0)" xlink:href="#C"/><use transform="matrix(0.0126953125,0,0,0.0126953125,64.94921875,0)" xlink:href="#G"/></g><g id="x"><use transform="matrix(0.0126953125,0,0,0.0126953125,0,0)" xlink:href="#R"/><use transform="matrix(0.0126953125,0,0,0.0126953125,17.9384765625,0)" xlink:href="#H"/><use transform="matrix(0.0126953125,0,0,0.0126953125,32.7919921875,0)" xlink:href="#B"/><use transform="matrix(0.0126953125,0,0,0.0126953125,41.2978515625,0)" xlink:href="#z"/><use transform="matrix(0.0126953125,0,0,0.0126953125,47.5947265625,0)" xlink:href="#I"/><use transform="matrix(0.0126953125,0,0,0.0126953125,63.1845703125,0)" xlink:href="#P"/><use transform="matrix(0.0126953125,0,0,0.0126953125,78.5458984375,0)" xlink:href="#O"/></g></defs></g></svg>